<?xml version="1.0" encoding="UTF-8"?>
<!DOCTYPE svg PUBLIC "-//W3C//DTD SVG 1.1//EN" "http://www.w3.org/Graphics/SVG/1.1/DTD/svg11.dtd">
<svg version="1.2" width="50mm" height="50mm" viewBox="0 0 5000 5000" preserveAspectRatio="xMidYMid" fill-rule="evenodd" stroke-width="28.222" stroke-linejoin="round" xmlns="http://www.w3.org/2000/svg" xmlns:ooo="http://xml.openoffice.org/svg/export" xmlns:xlink="http://www.w3.org/1999/xlink" xmlns:presentation="http://sun.com/xmlns/staroffice/presentation" xmlns:smil="http://www.w3.org/2001/SMIL20/" xmlns:anim="urn:oasis:names:tc:opendocument:xmlns:animation:1.0" xmlns:svg="urn:oasis:names:tc:opendocument:xmlns:svg-compatible:1.0" xml:space="preserve">
 <defs class="ClipPathGroup">
  <clipPath id="presentation_clip_path" clipPathUnits="userSpaceOnUse">
   <rect x="0" y="0" width="5000" height="5000"/>
  </clipPath>
  <clipPath id="presentation_clip_path_shrink" clipPathUnits="userSpaceOnUse">
   <rect x="5" y="5" width="4990" height="4990"/>
  </clipPath>
 </defs>
 <defs class="TextShapeIndex">
  <g ooo:slide="id1" ooo:id-list="id3 id4 id5 id6 id7 id8 id9 id10 id11 id12 id13 id14 id15 id16 id17 id18 id19 id20 id21 id22"/>
 </defs>
 <defs class="EmbeddedBulletChars">
  <g id="bullet-char-template-57356" transform="scale(0.00048828125,-0.00048828125)">
   <path d="M 580,1141 L 1163,571 580,0 -4,571 580,1141 Z"/>
  </g>
  <g id="bullet-char-template-57354" transform="scale(0.00048828125,-0.00048828125)">
   <path d="M 8,1128 L 1137,1128 1137,0 8,0 8,1128 Z"/>
  </g>
  <g id="bullet-char-template-10146" transform="scale(0.00048828125,-0.00048828125)">
   <path d="M 174,0 L 602,739 174,1481 1456,739 174,0 Z M 1358,739 L 309,1346 659,739 1358,739 Z"/>
  </g>
  <g id="bullet-char-template-10132" transform="scale(0.00048828125,-0.00048828125)">
   <path d="M 2015,739 L 1276,0 717,0 1260,543 174,543 174,936 1260,936 717,1481 1274,1481 2015,739 Z"/>
  </g>
  <g id="bullet-char-template-10007" transform="scale(0.00048828125,-0.00048828125)">
   <path d="M 0,-2 C -7,14 -16,27 -25,37 L 356,567 C 262,823 215,952 215,954 215,979 228,992 255,992 264,992 276,990 289,987 310,991 331,999 354,1012 L 381,999 492,748 772,1049 836,1024 860,1049 C 881,1039 901,1025 922,1006 886,937 835,863 770,784 769,783 710,716 594,584 L 774,223 C 774,196 753,168 711,139 L 727,119 C 717,90 699,76 672,76 641,76 570,178 457,381 L 164,-76 C 142,-110 111,-127 72,-127 30,-127 9,-110 8,-76 1,-67 -2,-52 -2,-32 -2,-23 -1,-13 0,-2 Z"/>
  </g>
  <g id="bullet-char-template-10004" transform="scale(0.00048828125,-0.00048828125)">
   <path d="M 285,-33 C 182,-33 111,30 74,156 52,228 41,333 41,471 41,549 55,616 82,672 116,743 169,778 240,778 293,778 328,747 346,684 L 369,508 C 377,444 397,411 428,410 L 1163,1116 C 1174,1127 1196,1133 1229,1133 1271,1133 1292,1118 1292,1087 L 1292,965 C 1292,929 1282,901 1262,881 L 442,47 C 390,-6 338,-33 285,-33 Z"/>
  </g>
  <g id="bullet-char-template-9679" transform="scale(0.00048828125,-0.00048828125)">
   <path d="M 813,0 C 632,0 489,54 383,161 276,268 223,411 223,592 223,773 276,916 383,1023 489,1130 632,1184 813,1184 992,1184 1136,1130 1245,1023 1353,916 1407,772 1407,592 1407,412 1353,268 1245,161 1136,54 992,0 813,0 Z"/>
  </g>
  <g id="bullet-char-template-8226" transform="scale(0.00048828125,-0.00048828125)">
   <path d="M 346,457 C 273,457 209,483 155,535 101,586 74,649 74,723 74,796 101,859 155,911 209,963 273,989 346,989 419,989 480,963 531,910 582,859 608,796 608,723 608,648 583,586 532,535 482,483 420,457 346,457 Z"/>
  </g>
  <g id="bullet-char-template-8211" transform="scale(0.00048828125,-0.00048828125)">
   <path d="M -4,459 L 1135,459 1135,606 -4,606 -4,459 Z"/>
  </g>
  <g id="bullet-char-template-61548" transform="scale(0.00048828125,-0.00048828125)">
   <path d="M 173,740 C 173,903 231,1043 346,1159 462,1274 601,1332 765,1332 928,1332 1067,1274 1183,1159 1299,1043 1357,903 1357,740 1357,577 1299,437 1183,322 1067,206 928,148 765,148 601,148 462,206 346,322 231,437 173,577 173,740 Z"/>
  </g>
 </defs>
 <g>
  <g id="id2" class="Master_Slide">
   <g id="bg-id2" class="Background"/>
   <g id="bo-id2" class="BackgroundObjects"/>
  </g>
 </g>
 <g class="SlideGroup">
  <g>
   <g id="container-id1">
    <g id="id1" class="Slide" clip-path="url(#presentation_clip_path)">
     <g class="Page">
      <g class="Group">
       <g class="com.sun.star.drawing.CustomShape">
        <g id="id3">
         <rect class="BoundingBox" stroke="none" fill="none" x="61" y="110" width="4830" height="4856"/>
         <path fill="rgb(224,247,141)" stroke="none" d="M 2476,4965 L 61,4965 61,110 4890,110 4890,4965 2476,4965 Z"/>
        </g>
       </g>
       <g class="Group">
        <g class="com.sun.star.drawing.PolyPolygonShape">
         <g id="id4">
          <rect class="BoundingBox" stroke="none" fill="none" x="-327" y="10" width="5670" height="5003"/>
          <path fill="rgb(26,70,33)" stroke="none" d="M -326,2511 L -326,5011 2508,5011 5341,5011 5341,2511 5341,11 2508,11 -326,11 -326,2511 Z M 2683,334 L 2800,348 2919,372 3038,407 3155,451 3270,504 3381,566 3486,636 3584,713 3688,811 3783,918 3869,1032 3944,1152 4009,1278 4062,1410 4104,1546 4135,1686 4146,1760 4150,1794 4152,1828 4154,1905 4152,2008 4148,2091 4143,2166 4136,2229 4133,2253 4129,2273 4111,2349 4091,2419 4081,2448 4074,2470 4070,2478 4068,2483 4066,2485 4065,2486 4065,2487 4065,2487 4064,2487 4064,2487 4064,2487 4064,2487 4064,2486 4064,2486 4063,2486 4063,2486 4063,2485 4063,2484 4063,2481 4064,2478 4065,2468 4068,2456 4076,2425 4086,2388 4102,2329 4115,2272 4126,2214 4133,2156 4139,2097 4142,2034 4141,1896 4137,1821 4132,1749 4125,1687 4121,1662 4118,1642 4080,1500 4032,1364 3974,1235 3906,1112 3829,997 3743,890 3649,790 3548,700 3440,619 3325,547 3204,485 3078,434 2946,393 2810,363 2670,345 2527,340 2402,344 2279,359 2159,382 2042,414 1928,454 1819,502 1713,559 1612,622 1516,694 1426,772 1341,857 1263,949 1191,1046 1126,1150 1069,1259 1019,1374 978,1494 947,1617 926,1741 914,1867 912,1994 920,2121 938,2248 965,2375 982,2436 989,2460 992,2468 994,2474 996,2479 997,2483 997,2485 997,2486 997,2487 997,2487 997,2488 997,2488 997,2488 997,2488 997,2488 997,2488 996,2489 996,2489 996,2489 996,2489 995,2489 995,2488 995,2488 994,2488 992,2487 990,2484 988,2483 987,2480 983,2473 975,2449 954,2375 932,2281 913,2188 905,2122 900,2049 899,1970 902,1888 908,1805 917,1722 930,1643 945,1568 980,1443 1025,1323 1080,1207 1143,1096 1215,991 1294,892 1381,800 1474,714 1574,636 1680,565 1791,503 1907,449 2027,405 2150,370 2277,345 2407,330 2497,325 2532,324 2555,324 2683,334 Z M 1661,1491 L 1658,1519 1654,1556 1647,1640 1645,1692 1645,1710 1645,1725 1646,1731 1647,1736 1649,1741 1650,1745 1652,1749 1654,1752 1657,1756 1660,1759 1664,1763 1669,1767 1673,1771 1678,1774 1682,1776 1685,1777 1687,1778 1689,1779 1691,1780 1692,1780 1694,1780 1696,1780 1698,1781 1699,1782 1701,1783 1702,1785 1703,1788 1704,1791 1705,1795 1707,1804 1707,1815 1706,1846 1703,1890 1697,1948 1675,2111 1656,2268 1650,2332 1647,2386 1647,2430 1648,2448 1649,2463 1651,2477 1654,2487 1656,2492 1658,2496 1660,2499 1662,2502 1663,2503 1665,2504 1667,2505 1668,2506 1670,2506 1672,2507 1675,2507 1677,2508 1679,2508 1681,2508 1686,2508 1688,2508 1691,2508 1693,2507 1695,2507 1703,2504 1706,2502 1709,2499 1712,2497 1715,2493 1718,2490 1720,2486 1725,2476 1729,2463 1732,2447 1734,2428 1738,2378 1740,2310 1738,2110 1734,1796 1762,1783 1777,1775 1784,1771 1789,1766 1794,1761 1798,1756 1802,1749 1805,1742 1807,1733 1809,1723 1812,1699 1814,1627 1816,1546 1818,1515 1821,1492 1824,1474 1825,1467 1827,1461 1829,1457 1830,1455 1831,1454 1832,1453 1834,1452 1835,1452 1836,1452 1836,1452 1837,1452 1837,1453 1838,1453 1838,1455 1839,1458 1840,1463 1843,1494 1845,1589 1842,1691 1839,1730 1837,1744 1836,1749 1835,1753 1834,1755 1832,1758 1831,1761 1829,1764 1824,1770 1818,1776 1812,1782 1806,1787 1799,1792 1792,1796 1759,1814 1766,2107 1769,2295 1768,2359 1766,2408 1763,2428 1761,2445 1757,2460 1753,2473 1748,2485 1742,2495 1735,2505 1728,2515 1723,2522 1717,2527 1712,2531 1707,2535 1701,2538 1696,2539 1690,2540 1688,2540 1685,2540 1679,2539 1674,2537 1668,2535 1662,2531 1657,2527 1651,2521 1646,2515 1640,2508 1635,2499 1630,2489 1626,2476 1623,2462 1621,2446 1619,2427 1619,2382 1621,2328 1627,2262 1649,2093 1681,1849 1683,1836 1684,1826 1684,1822 1683,1818 1683,1815 1682,1812 1681,1809 1679,1807 1678,1805 1675,1803 1673,1801 1670,1799 1663,1796 1655,1792 1647,1787 1641,1782 1635,1776 1630,1769 1626,1760 1622,1751 1620,1740 1618,1728 1617,1715 1617,1682 1619,1641 1623,1590 1632,1508 1635,1481 1639,1463 1640,1456 1642,1451 1644,1447 1645,1446 1646,1445 1647,1444 1648,1443 1650,1442 1651,1442 1652,1442 1654,1441 1657,1441 1658,1441 1658,1441 1659,1442 1660,1442 1660,1442 1661,1443 1661,1444 1661,1444 1662,1446 1663,1448 1663,1451 1664,1454 1664,1461 1663,1469 1663,1479 1661,1491 Z M 1718,1493 L 1718,1521 1716,1550 1710,1605 1707,1628 1703,1647 1701,1654 1700,1659 1699,1661 1698,1662 1697,1663 1697,1663 1697,1663 1696,1663 1696,1663 1696,1663 1695,1663 1695,1662 1694,1661 1693,1659 1693,1656 1691,1647 1690,1635 1688,1605 1687,1570 1688,1501 1690,1474 1691,1465 1692,1461 1693,1458 1695,1453 1697,1450 1698,1449 1699,1447 1700,1447 1701,1446 1703,1446 1704,1445 1705,1445 1706,1446 1707,1446 1708,1447 1709,1448 1710,1449 1711,1452 1713,1456 1715,1460 1716,1466 1717,1472 1718,1478 1718,1493 Z M 3391,1475 L 3393,1485 3396,1500 3402,1542 3408,1595 3413,1653 3450,2134 3464,2317 3470,2421 3471,2452 3470,2464 3469,2473 3468,2481 3466,2487 3464,2492 3461,2496 3454,2505 3447,2512 3440,2518 3431,2522 3423,2526 3414,2528 3405,2529 3396,2528 3387,2527 3378,2524 3370,2520 3362,2515 3355,2509 3349,2502 3344,2493 3339,2484 3337,2476 3335,2465 3332,2438 3330,2403 3329,2362 3332,2271 3339,2177 3345,2124 3346,2106 3346,2099 3345,2093 3345,2087 3343,2082 3342,2077 3340,2073 3338,2069 3335,2064 3328,2056 3312,2034 3305,2023 3299,2013 3294,2003 3289,1992 3286,1981 3283,1969 3280,1955 3279,1941 3277,1908 3278,1867 3280,1817 3288,1697 3301,1585 3308,1537 3316,1499 3323,1471 3326,1462 3328,1458 3330,1456 3334,1451 3338,1448 3342,1445 3347,1443 3349,1442 3351,1441 3353,1441 3355,1441 3357,1441 3360,1441 3362,1442 3364,1442 3368,1444 3372,1446 3376,1449 3380,1453 3383,1458 3386,1463 3389,1468 3391,1475 Z M 1793,1493 L 1792,1521 1790,1550 1785,1605 1781,1628 1777,1647 1776,1654 1774,1659 1773,1661 1772,1662 1772,1663 1771,1663 1771,1663 1770,1663 1770,1663 1770,1663 1769,1663 1769,1662 1768,1661 1768,1659 1767,1655 1765,1646 1764,1633 1762,1602 1761,1565 1761,1528 1763,1496 1765,1471 1766,1463 1767,1461 1768,1460 1768,1459 1771,1456 1774,1454 1775,1453 1776,1453 1778,1452 1779,1452 1780,1452 1781,1452 1782,1452 1783,1452 1784,1453 1785,1453 1786,1454 1786,1455 1787,1456 1788,1457 1789,1461 1790,1464 1791,1469 1792,1480 1793,1493 Z M 2447,1472 L 2463,1480 2476,1489 2489,1498 2500,1508 2510,1519 2519,1532 2528,1546 2536,1562 2552,1591 2565,1560 2568,1552 2572,1545 2577,1538 2582,1530 2593,1516 2606,1502 2620,1490 2635,1479 2642,1474 2650,1470 2657,1467 2665,1463 2675,1460 2686,1457 2699,1455 2713,1454 2745,1452 2781,1453 2820,1456 2862,1462 2906,1469 2952,1478 2998,1489 3037,1500 3065,1508 3073,1512 3076,1513 3077,1514 3077,1514 3078,1515 3078,1515 3079,1517 3080,1524 3083,1547 3092,1630 3115,1896 3129,2100 3135,2214 3135,2246 3135,2257 3134,2266 3132,2273 3130,2278 3129,2280 3128,2282 3125,2285 3120,2289 3115,2293 3110,2296 3104,2298 3097,2299 3089,2300 3081,2300 3071,2300 3049,2296 3022,2290 2950,2269 2899,2253 2853,2242 2832,2239 2812,2238 2793,2237 2775,2239 2756,2241 2738,2245 2720,2251 2701,2258 2682,2267 2662,2277 2620,2302 2552,2346 2509,2320 2452,2289 2404,2266 2383,2257 2362,2249 2343,2244 2324,2240 2305,2238 2286,2237 2267,2238 2247,2241 2203,2250 2153,2265 2066,2291 2036,2298 2023,2300 2012,2301 2003,2301 1995,2300 1991,2299 1988,2298 1985,2297 1982,2295 1979,2294 1977,2292 1974,2289 1972,2287 1969,2281 1965,2275 1964,2273 1964,2271 1963,2264 1962,2256 1961,2246 1961,2218 1962,2181 1968,2076 1979,1922 2005,1561 2005,1553 2006,1545 2008,1538 2010,1532 2012,1529 2014,1526 2019,1520 2025,1515 2032,1510 2041,1506 2051,1501 2077,1493 2111,1484 2153,1475 2202,1465 2248,1459 2291,1454 2331,1453 2366,1454 2398,1457 2412,1460 2425,1463 2437,1467 2447,1472 Z M 2398,2316 L 2409,2320 2420,2326 2432,2334 2445,2342 2457,2351 2470,2360 2481,2370 2492,2380 2512,2398 2530,2412 2537,2418 2544,2422 2547,2424 2549,2425 2551,2426 2552,2426 2552,2426 2553,2426 2554,2426 2556,2425 2558,2424 2561,2422 2567,2418 2575,2412 2583,2406 2592,2398 2611,2380 2630,2363 2649,2349 2669,2336 2689,2325 2711,2317 2733,2310 2757,2305 2781,2302 2807,2301 2834,2301 2862,2304 2892,2309 2956,2323 3027,2345 3068,2360 3102,2374 3115,2381 3126,2386 3130,2388 3133,2390 3134,2391 3135,2392 3135,2393 3136,2393 3136,2393 3137,2396 3137,2399 3137,2400 3137,2401 3137,2402 3136,2402 3136,2402 3136,2403 3136,2403 3135,2403 3133,2404 3132,2404 3128,2404 3124,2403 3109,2400 3089,2394 3022,2372 2978,2359 2934,2348 2891,2340 2850,2335 2811,2332 2776,2332 2760,2334 2745,2335 2732,2338 2719,2341 2710,2345 2700,2351 2688,2358 2675,2366 2661,2375 2648,2385 2635,2395 2623,2406 2600,2426 2580,2443 2572,2449 2565,2454 2560,2457 2558,2458 2558,2458 2557,2458 2554,2458 2550,2456 2546,2455 2541,2453 2531,2447 2521,2440 2510,2432 2500,2423 2491,2413 2482,2403 2469,2388 2455,2375 2438,2364 2421,2354 2402,2346 2381,2340 2359,2335 2336,2332 2311,2331 2285,2332 2257,2334 2228,2337 2166,2350 2099,2369 2047,2385 2008,2394 1994,2397 1983,2399 1978,2399 1975,2398 1973,2398 1972,2398 1971,2397 1971,2397 1970,2397 1970,2396 1970,2396 1970,2396 1971,2395 1971,2395 1973,2393 1975,2391 1983,2387 1993,2382 2022,2369 2057,2355 2138,2327 2177,2315 2211,2307 2221,2305 2232,2303 2256,2301 2281,2300 2308,2301 2334,2303 2359,2306 2381,2311 2390,2313 2398,2316 Z M 2158,2914 L 2158,2914 2159,2914 2160,2915 2161,2915 2163,2916 2168,2917 2174,2918 2192,2920 2215,2921 2276,2923 2354,2924 2432,2923 2493,2921 2516,2920 2534,2918 2540,2917 2545,2916 2547,2915 2548,2915 2549,2914 2550,2914 2550,2914 2553,2909 2556,2906 2557,2904 2559,2903 2560,2903 2561,2902 2563,2902 2564,2902 2565,2903 2566,2904 2567,2905 2568,2906 2569,2908 2570,2909 2571,2914 2573,2920 2575,2934 2576,2953 2577,2976 2576,3004 2574,3026 2573,3035 2571,3043 2569,3049 2569,3051 2568,3053 2567,3054 2566,3055 2565,3056 2565,3056 2564,3056 2563,3056 2563,3056 2562,3056 2562,3056 2561,3055 2560,3054 2559,3052 2557,3048 2555,3041 2552,3032 2550,3022 2548,3013 2546,3005 2543,2997 2540,2989 2537,2981 2533,2974 2530,2969 2528,2966 2527,2964 2523,2960 2518,2956 2512,2953 2506,2950 2499,2947 2491,2944 2484,2942 2476,2940 2459,2937 2451,2936 2443,2936 2435,2936 2427,2936 2419,2938 2412,2939 2386,2945 2386,3167 2387,3303 2389,3346 2391,3362 2393,3375 2396,3386 2397,3390 2399,3394 2401,3397 2403,3400 2406,3403 2409,3405 2411,3407 2415,3408 2422,3411 2430,3413 2439,3415 2441,3415 2442,3415 2442,3415 2442,3416 2442,3416 2442,3416 2442,3416 2442,3416 2442,3416 2442,3416 2442,3416 2441,3416 2440,3416 2438,3417 2435,3417 2425,3418 2395,3419 2354,3420 2290,3419 2272,3419 2266,3418 2261,3418 2260,3418 2260,3417 2259,3417 2259,3417 2259,3417 2259,3417 2259,3417 2259,3417 2259,3416 2259,3416 2260,3416 2261,3415 2264,3414 2276,3411 2294,3407 2322,3401 2322,3173 2322,2945 2296,2939 2283,2936 2271,2935 2258,2935 2246,2936 2234,2938 2223,2941 2212,2946 2201,2951 2191,2957 2182,2964 2174,2971 2167,2980 2160,2989 2155,2999 2150,3009 2147,3020 2143,3038 2141,3043 2139,3048 2138,3049 2137,3050 2137,3051 2136,3051 2136,3051 2135,3051 2135,3051 2135,3051 2134,3051 2134,3050 2133,3049 2133,3048 2131,3044 2130,3039 2129,3024 2129,3003 2129,2977 2131,2954 2133,2935 2136,2920 2137,2914 2139,2910 2140,2908 2141,2907 2142,2905 2143,2904 2144,2904 2145,2903 2146,2903 2147,2903 2148,2903 2150,2904 2151,2905 2152,2906 2155,2909 2158,2914 Z M 2659,3117 L 2660,3118 2661,3119 2662,3122 2663,3126 2665,3130 2667,3142 2669,3157 2671,3198 2672,3253 2672,3300 2674,3337 2675,3352 2677,3364 2680,3375 2683,3383 2684,3387 2686,3390 2688,3393 2690,3395 2692,3397 2695,3398 2698,3399 2700,3400 2703,3400 2707,3400 2710,3399 2714,3399 2721,3396 2730,3392 2734,3390 2739,3387 2747,3380 2755,3370 2763,3359 2771,3346 2779,3331 2792,3298 2804,3261 2812,3221 2818,3180 2820,3139 2820,3129 2821,3121 2822,3117 2822,3115 2823,3112 2824,3111 2825,3110 2825,3109 2826,3108 2827,3108 2828,3107 2829,3107 2830,3106 2833,3105 2835,3105 2839,3104 2847,3104 2873,3104 2873,3246 2874,3307 2876,3353 2878,3370 2880,3383 2881,3388 2882,3392 2883,3393 2883,3394 2884,3395 2884,3395 2885,3395 2885,3396 2886,3396 2887,3396 2887,3397 2889,3397 2891,3397 2893,3396 2895,3396 2898,3395 2900,3394 2905,3391 2911,3388 2916,3384 2922,3379 2928,3373 2934,3368 2940,3364 2944,3362 2946,3361 2948,3361 2949,3360 2951,3360 2952,3361 2952,3361 2953,3361 2953,3361 2953,3362 2954,3362 2954,3363 2954,3364 2954,3365 2954,3367 2954,3368 2953,3372 2950,3377 2947,3382 2943,3388 2938,3394 2931,3401 2925,3407 2919,3412 2912,3417 2906,3421 2899,3425 2892,3428 2885,3430 2879,3431 2872,3432 2865,3433 2859,3432 2853,3431 2847,3429 2842,3427 2837,3424 2833,3420 2832,3419 2831,3418 2830,3416 2829,3414 2828,3411 2826,3403 2824,3395 2822,3385 2821,3375 2820,3364 2820,3353 2820,3300 2800,3344 2792,3358 2784,3372 2775,3385 2765,3396 2754,3406 2743,3414 2731,3421 2720,3427 2708,3430 2696,3433 2684,3433 2673,3432 2668,3431 2662,3430 2657,3428 2652,3425 2647,3422 2642,3419 2638,3415 2634,3410 2630,3407 2628,3403 2625,3399 2623,3395 2621,3390 2619,3385 2618,3379 2617,3372 2616,3356 2615,3335 2616,3275 2616,3230 2616,3195 2614,3169 2612,3159 2610,3152 2609,3149 2607,3146 2606,3144 2604,3143 2602,3141 2600,3141 2598,3141 2596,3141 2594,3141 2591,3142 2586,3145 2579,3150 2572,3156 2567,3161 2561,3166 2556,3169 2551,3172 2548,3173 2546,3174 2544,3175 2542,3175 2541,3175 2540,3175 2539,3175 2539,3175 2538,3175 2538,3175 2537,3174 2537,3174 2536,3173 2536,3172 2536,3171 2536,3169 2536,3167 2537,3165 2538,3163 2541,3158 2546,3152 2551,3146 2565,3134 2580,3123 2588,3118 2595,3113 2603,3110 2610,3107 2616,3105 2619,3104 2622,3104 2627,3104 2632,3105 2638,3106 2643,3108 2648,3110 2652,3112 2654,3113 2656,3114 2658,3115 2659,3117 Z M 1596,3596 L 1602,3599 1608,3602 1613,3606 1618,3610 1622,3615 1626,3620 1630,3625 1633,3631 1636,3638 1638,3646 1640,3654 1642,3662 1644,3682 1644,3704 1644,3710 1644,3716 1643,3720 1642,3723 1641,3725 1641,3726 1640,3727 1639,3727 1639,3727 1638,3728 1638,3728 1637,3728 1636,3727 1635,3727 1634,3726 1633,3725 1630,3723 1627,3719 1624,3715 1617,3703 1609,3687 1604,3676 1597,3666 1590,3657 1582,3648 1573,3640 1563,3633 1553,3627 1542,3621 1531,3616 1519,3612 1506,3609 1493,3606 1479,3605 1465,3604 1451,3604 1436,3605 1415,3608 1395,3613 1376,3618 1359,3626 1343,3635 1328,3645 1315,3656 1303,3669 1293,3684 1284,3699 1276,3716 1270,3735 1265,3754 1261,3775 1259,3798 1259,3821 1260,3849 1263,3876 1268,3901 1275,3925 1283,3948 1294,3969 1306,3988 1319,4006 1335,4022 1351,4037 1370,4050 1390,4061 1411,4070 1434,4077 1458,4083 1483,4086 1512,4088 1524,4087 1535,4086 1545,4084 1554,4081 1561,4077 1565,4075 1568,4073 1571,4070 1574,4067 1579,4060 1583,4052 1586,4043 1588,4033 1590,4022 1591,4010 1591,3996 1591,3975 1590,3966 1589,3958 1588,3951 1586,3944 1584,3939 1581,3934 1578,3930 1574,3926 1569,3923 1564,3920 1557,3918 1550,3915 1533,3910 1521,3908 1517,3906 1514,3905 1513,3905 1513,3904 1512,3904 1512,3904 1512,3904 1512,3904 1512,3904 1512,3903 1513,3903 1513,3903 1513,3903 1514,3903 1516,3902 1519,3902 1524,3901 1540,3901 1589,3900 1687,3899 1665,3921 1658,3928 1655,3932 1653,3935 1651,3939 1649,3943 1647,3948 1646,3952 1646,3958 1645,3964 1645,3977 1647,4016 1652,4088 1593,4101 1559,4106 1524,4109 1487,4109 1450,4108 1415,4104 1383,4098 1368,4094 1354,4090 1342,4086 1331,4081 1313,4071 1297,4060 1281,4048 1267,4035 1253,4021 1241,4006 1230,3990 1221,3973 1212,3956 1205,3938 1200,3919 1195,3900 1192,3881 1191,3861 1191,3841 1192,3820 1196,3794 1202,3769 1211,3745 1221,3722 1234,3701 1249,3682 1265,3664 1284,3647 1304,3633 1326,3620 1350,3609 1375,3599 1401,3592 1429,3587 1458,3583 1489,3582 1504,3582 1519,3582 1535,3584 1550,3585 1564,3587 1576,3590 1587,3593 1592,3594 1596,3596 Z M 3763,3766 L 3763,3775 3764,3778 3764,3781 3765,3782 3766,3784 3766,3785 3767,3786 3768,3787 3769,3788 3771,3788 3772,3789 3776,3790 3780,3791 3785,3792 3791,3792 3828,3793 3862,3793 3873,3794 3877,3795 3880,3796 3881,3796 3882,3797 3883,3797 3883,3798 3884,3798 3884,3799 3884,3800 3884,3801 3884,3802 3883,3803 3882,3805 3880,3807 3878,3810 3876,3812 3874,3814 3872,3816 3869,3817 3867,3819 3864,3820 3861,3821 3857,3821 3853,3822 3849,3822 3839,3822 3828,3821 3814,3819 3763,3812 3763,3928 3764,3978 3767,4018 3770,4033 3774,4047 3778,4058 3780,4063 3783,4067 3786,4070 3789,4073 3792,4076 3795,4078 3799,4079 3803,4080 3807,4081 3812,4081 3817,4080 3822,4079 3833,4075 3845,4070 3858,4063 3870,4056 3880,4052 3884,4050 3888,4049 3891,4048 3892,4048 3893,4048 3894,4048 3895,4048 3895,4048 3896,4049 3896,4049 3896,4049 3896,4049 3896,4050 3896,4051 3896,4052 3896,4053 3895,4054 3894,4057 3892,4060 3889,4064 3881,4072 3873,4079 3863,4086 3853,4092 3843,4097 3832,4101 3820,4105 3809,4107 3797,4109 3786,4110 3775,4109 3764,4108 3754,4106 3745,4103 3736,4098 3733,4095 3729,4092 3726,4090 3724,4087 3721,4083 3719,4079 3718,4075 3716,4069 3715,4063 3713,4056 3712,4038 3711,4015 3710,3950 3709,3879 3708,3856 3707,3840 3705,3834 3704,3830 3703,3828 3702,3826 3701,3824 3700,3823 3699,3822 3698,3821 3696,3820 3695,3819 3691,3818 3688,3817 3681,3815 3679,3814 3677,3813 3676,3813 3675,3813 3675,3812 3674,3812 3674,3811 3674,3811 3674,3811 3674,3811 3674,3810 3674,3810 3674,3810 3675,3809 3675,3809 3677,3807 3679,3806 3682,3805 3689,3801 3699,3797 3706,3793 3713,3789 3719,3785 3724,3780 3730,3775 3732,3773 3734,3770 3735,3768 3737,3765 3738,3763 3739,3761 3740,3756 3742,3751 3744,3748 3745,3745 3746,3744 3747,3743 3748,3742 3750,3741 3751,3741 3752,3740 3753,3740 3754,3741 3754,3741 3755,3741 3756,3742 3757,3743 3758,3744 3759,3745 3760,3748 3761,3751 3762,3756 3763,3761 3763,3766 Z M 1971,3803 L 1979,3809 1987,3815 1994,3822 2001,3830 2012,3846 2021,3865 2028,3884 2032,3905 2034,3926 2034,3948 2031,3970 2026,3991 2019,4011 2010,4031 1999,4049 1985,4065 1969,4079 1952,4090 1926,4102 1900,4109 1888,4111 1876,4112 1864,4112 1852,4110 1841,4108 1830,4105 1819,4101 1809,4097 1800,4091 1790,4085 1774,4070 1759,4052 1747,4032 1739,4010 1733,3986 1730,3961 1732,3934 1737,3906 1746,3877 1753,3862 1762,3847 1773,3834 1785,3822 1797,3812 1811,3803 1826,3796 1841,3790 1857,3785 1873,3782 1890,3781 1906,3782 1923,3785 1939,3789 1955,3795 1971,3803 Z M 2174,3803 L 2175,3806 2176,3810 2178,3820 2180,3833 2181,3850 2182,3889 2183,3935 2181,3992 2182,4013 2183,4029 2184,4035 2185,4041 2187,4046 2188,4051 2190,4055 2192,4058 2195,4061 2197,4064 2203,4069 2205,4071 2208,4073 2210,4075 2212,4076 2215,4076 2217,4077 2220,4077 2223,4077 2225,4077 2228,4076 2232,4075 2235,4074 2243,4070 2250,4066 2257,4061 2263,4055 2270,4048 2276,4039 2282,4029 2287,4018 2292,4006 2302,3978 2311,3947 2318,3911 2324,3872 2332,3823 2335,3807 2337,3801 2339,3796 2340,3792 2341,3790 2343,3789 2344,3787 2345,3786 2346,3785 2347,3785 2349,3784 2350,3783 2354,3783 2357,3782 2362,3782 2366,3782 2370,3783 2371,3783 2373,3783 2374,3784 2376,3785 2377,3786 2378,3787 2379,3788 2380,3790 2381,3792 2382,3794 2383,3800 2384,3808 2385,3817 2385,3842 2386,3924 2387,3985 2389,4031 2391,4048 2393,4061 2394,4066 2395,4070 2396,4071 2396,4072 2397,4073 2397,4073 2398,4074 2398,4074 2399,4074 2400,4074 2400,4075 2402,4075 2404,4075 2406,4074 2408,4074 2410,4073 2413,4072 2418,4069 2423,4065 2429,4061 2435,4056 2440,4052 2445,4048 2450,4045 2454,4042 2457,4041 2459,4040 2461,4040 2462,4039 2464,4039 2465,4039 2465,4039 2466,4040 2466,4040 2467,4040 2467,4040 2468,4041 2468,4042 2469,4043 2469,4043 2469,4045 2468,4047 2468,4049 2467,4052 2463,4057 2459,4062 2453,4068 2440,4080 2425,4092 2417,4097 2409,4101 2402,4105 2395,4108 2388,4110 2385,4110 2383,4110 2376,4110 2370,4109 2364,4108 2359,4106 2355,4104 2351,4101 2347,4097 2344,4093 2341,4088 2339,4082 2337,4076 2335,4069 2334,4060 2333,4052 2333,4031 2333,3978 2313,4022 2308,4032 2302,4041 2297,4050 2291,4059 2284,4067 2278,4074 2271,4081 2264,4087 2256,4092 2249,4097 2241,4101 2233,4104 2225,4107 2216,4109 2208,4110 2199,4110 2188,4110 2177,4108 2167,4105 2163,4103 2158,4100 2154,4098 2151,4094 2147,4091 2144,4087 2138,4078 2133,4068 2129,4056 2126,4042 2124,4026 2123,4009 2122,3969 2125,3921 2128,3881 2129,3866 2128,3854 2128,3848 2127,3844 2126,3840 2125,3837 2123,3834 2122,3831 2120,3829 2118,3827 2116,3825 2113,3824 2111,3823 2109,3822 2107,3821 2105,3821 2103,3821 2101,3822 2099,3822 2097,3823 2094,3825 2092,3826 2086,3831 2080,3836 2073,3842 2068,3846 2063,3850 2059,3852 2057,3853 2055,3853 2054,3854 2053,3854 2052,3853 2052,3853 2051,3853 2051,3853 2051,3852 2050,3852 2050,3852 2050,3851 2050,3850 2050,3849 2050,3847 2050,3846 2052,3842 2055,3837 2058,3832 2062,3827 2073,3814 2080,3807 2087,3801 2094,3796 2102,3792 2109,3788 2117,3786 2124,3784 2131,3782 2138,3782 2144,3783 2150,3784 2156,3786 2161,3789 2164,3791 2166,3793 2168,3795 2170,3798 2174,3803 Z M 2577,3802 L 2578,3805 2578,3808 2580,3815 2582,3823 2584,3832 2587,3853 2588,3864 2588,3874 2588,3925 2602,3883 2610,3859 2619,3838 2623,3829 2628,3821 2633,3813 2637,3807 2643,3801 2648,3796 2653,3792 2659,3788 2664,3786 2670,3784 2676,3783 2683,3782 2689,3783 2695,3783 2700,3785 2706,3786 2711,3789 2715,3791 2719,3794 2723,3797 2726,3801 2729,3805 2731,3808 2732,3813 2733,3817 2733,3819 2733,3821 2733,3823 2733,3825 2732,3828 2731,3830 2731,3831 2730,3833 2729,3835 2728,3836 2726,3837 2725,3839 2722,3841 2719,3843 2715,3844 2711,3845 2707,3845 2703,3846 2698,3845 2694,3845 2690,3843 2686,3842 2682,3840 2678,3837 2675,3834 2674,3833 2672,3832 2671,3831 2670,3830 2668,3829 2667,3829 2665,3828 2663,3828 2662,3828 2660,3827 2659,3827 2658,3827 2656,3828 2655,3828 2654,3828 2653,3829 2651,3830 2650,3832 2646,3836 2642,3843 2639,3850 2631,3870 2623,3894 2615,3923 2608,3954 2601,3988 2595,4022 2588,4070 2584,4086 2583,4092 2581,4097 2579,4101 2577,4104 2576,4105 2575,4106 2573,4107 2572,4108 2571,4109 2569,4109 2566,4110 2562,4110 2559,4110 2554,4110 2551,4110 2549,4110 2547,4109 2546,4109 2544,4108 2543,4107 2542,4106 2541,4105 2540,4103 2539,4101 2539,4099 2537,4093 2536,4086 2535,4077 2535,4052 2534,3974 2534,3906 2533,3882 2531,3863 2529,3848 2528,3842 2526,3837 2525,3833 2523,3830 2521,3827 2519,3826 2518,3825 2516,3823 2514,3821 2511,3820 2509,3819 2507,3818 2505,3818 2503,3817 2500,3818 2498,3818 2495,3819 2493,3820 2490,3821 2483,3824 2476,3829 2470,3833 2464,3836 2460,3838 2456,3839 2455,3839 2454,3839 2452,3839 2452,3839 2451,3838 2451,3838 2451,3838 2450,3837 2450,3837 2450,3837 2450,3836 2450,3835 2451,3833 2451,3832 2452,3830 2454,3827 2457,3823 2461,3819 2465,3814 2477,3804 2484,3799 2491,3795 2498,3791 2506,3788 2513,3786 2520,3784 2528,3783 2535,3783 2541,3783 2548,3784 2554,3785 2560,3788 2565,3790 2569,3794 2571,3796 2573,3798 2575,3800 2577,3802 Z M 2871,3795 L 2872,3796 2874,3799 2875,3801 2876,3804 2878,3810 2880,3818 2882,3826 2883,3836 2883,3845 2884,3855 2884,3904 2910,3857 2922,3837 2934,3821 2939,3814 2944,3808 2950,3803 2955,3798 2961,3794 2967,3791 2973,3788 2979,3786 2985,3785 2992,3783 3000,3783 3008,3782 3015,3782 3022,3783 3029,3785 3035,3786 3041,3789 3046,3792 3051,3795 3056,3799 3060,3804 3064,3809 3068,3815 3071,3821 3074,3828 3077,3836 3079,3844 3081,3853 3088,3891 3107,3853 3117,3836 3122,3829 3128,3822 3133,3816 3139,3810 3145,3804 3151,3800 3157,3796 3164,3792 3171,3789 3178,3787 3185,3785 3192,3783 3200,3783 3208,3782 3217,3783 3226,3783 3233,3785 3237,3786 3240,3788 3243,3789 3246,3791 3248,3794 3251,3796 3253,3799 3255,3802 3259,3810 3263,3819 3265,3830 3270,3859 3273,3895 3276,3942 3278,3991 3282,4032 3284,4049 3285,4061 3286,4066 3287,4070 3288,4073 3289,4074 3289,4074 3289,4074 3290,4075 3290,4075 3291,4075 3292,4076 3292,4076 3293,4076 3295,4076 3297,4075 3299,4075 3302,4074 3304,4073 3310,4071 3316,4067 3322,4063 3328,4059 3341,4050 3347,4047 3351,4044 3354,4043 3356,4043 3357,4043 3358,4043 3358,4043 3358,4043 3359,4043 3359,4044 3359,4044 3359,4044 3359,4045 3359,4045 3359,4046 3359,4047 3358,4049 3356,4052 3353,4057 3344,4067 3332,4081 3325,4088 3317,4094 3310,4099 3302,4103 3295,4106 3287,4109 3280,4110 3273,4111 3267,4111 3260,4109 3255,4107 3252,4106 3249,4104 3247,4103 3244,4100 3242,4098 3240,4096 3236,4090 3233,4083 3232,4080 3231,4076 3229,4065 3227,4051 3226,4035 3224,3997 3223,3956 3222,3908 3218,3871 3216,3855 3212,3842 3209,3832 3206,3827 3204,3823 3202,3820 3199,3818 3196,3816 3193,3814 3190,3813 3187,3813 3183,3813 3180,3814 3176,3815 3172,3817 3164,3823 3154,3830 3144,3840 3139,3847 3133,3854 3128,3862 3123,3871 3119,3880 3114,3891 3106,3913 3100,3938 3094,3967 3089,3998 3086,4031 3082,4072 3079,4086 3078,4091 3076,4095 3075,4098 3074,4100 3072,4101 3071,4102 3070,4103 3069,4104 3068,4105 3065,4106 3061,4107 3053,4108 3025,4112 3030,4008 3031,3968 3030,3933 3029,3903 3026,3878 3023,3867 3021,3857 3018,3848 3015,3841 3011,3834 3007,3829 3003,3824 3001,3822 2998,3820 2994,3818 2990,3817 2985,3816 2981,3816 2977,3817 2973,3818 2968,3820 2964,3823 2960,3827 2955,3831 2947,3840 2939,3852 2931,3867 2924,3883 2917,3901 2904,3941 2894,3987 2888,4037 2883,4078 2881,4090 2880,4095 2878,4099 2876,4103 2875,4104 2874,4105 2873,4106 2872,4107 2871,4108 2870,4109 2868,4109 2867,4110 2864,4110 2860,4110 2856,4110 2831,4110 2831,3969 2830,3908 2828,3862 2826,3845 2824,3832 2823,3827 2822,3823 2821,3822 2820,3821 2820,3820 2820,3819 2819,3819 2819,3819 2818,3819 2817,3818 2816,3818 2815,3818 2813,3818 2811,3819 2808,3819 2806,3820 2804,3821 2799,3824 2793,3827 2788,3831 2782,3836 2777,3841 2772,3845 2767,3848 2762,3851 2760,3852 2758,3852 2756,3853 2754,3853 2753,3853 2752,3853 2751,3853 2751,3853 2750,3853 2750,3853 2749,3852 2749,3852 2748,3851 2748,3850 2748,3849 2748,3847 2748,3845 2749,3843 2750,3841 2753,3836 2758,3830 2763,3824 2776,3812 2792,3801 2799,3796 2807,3791 2815,3788 2822,3785 2828,3783 2831,3782 2834,3782 2839,3782 2844,3783 2850,3784 2855,3786 2860,3788 2862,3789 2864,3790 2866,3791 2868,3792 2869,3793 2871,3795 Z M 3608,3799 L 3616,3807 3619,3811 3621,3815 3622,3818 3623,3820 3623,3822 3624,3823 3624,3825 3623,3827 3623,3829 3622,3832 3620,3836 3618,3840 3615,3845 3606,3855 3595,3867 3591,3871 3587,3874 3577,3882 3566,3888 3555,3895 3542,3901 3528,3907 3513,3912 3498,3917 3432,3935 3439,3972 3442,3987 3446,4001 3451,4013 3457,4025 3464,4035 3471,4045 3480,4053 3490,4060 3500,4066 3511,4070 3523,4073 3535,4075 3548,4076 3562,4075 3576,4073 3591,4069 3612,4064 3627,4062 3633,4061 3637,4061 3639,4061 3640,4061 3641,4062 3641,4062 3641,4062 3642,4063 3642,4063 3642,4064 3642,4064 3642,4064 3641,4065 3641,4066 3640,4067 3638,4068 3634,4071 3622,4079 3605,4088 3595,4093 3585,4097 3574,4101 3564,4104 3553,4106 3542,4108 3531,4109 3520,4110 3510,4110 3499,4109 3489,4108 3479,4106 3470,4103 3461,4100 3452,4097 3444,4092 3438,4088 3432,4083 3425,4077 3419,4070 3407,4054 3395,4036 3385,4017 3378,3998 3375,3989 3373,3981 3371,3973 3371,3965 3371,3960 3372,3953 3374,3939 3379,3923 3384,3906 3391,3889 3398,3873 3406,3858 3414,3845 3423,3835 3432,3825 3444,3816 3456,3809 3469,3802 3483,3796 3498,3791 3512,3787 3527,3784 3541,3782 3555,3781 3568,3782 3580,3784 3591,3788 3596,3790 3600,3793 3605,3796 3608,3799 Z M 2430,4487 L 2431,4503 2431,4517 2431,4527 2430,4531 2430,4534 2429,4537 2428,4538 2428,4540 2427,4541 2426,4541 2425,4542 2425,4543 2424,4543 2423,4544 2422,4544 2421,4544 2418,4545 2416,4545 2413,4545 2410,4544 2409,4544 2408,4544 2407,4543 2406,4543 2405,4542 2404,4541 2403,4540 2403,4539 2401,4537 2400,4534 2399,4531 2398,4527 2397,4516 2397,4503 2396,4487 2397,4472 2397,4459 2398,4449 2399,4445 2400,4441 2401,4438 2402,4435 2403,4433 2404,4432 2404,4431 2405,4431 2406,4430 2407,4430 2407,4429 2408,4429 2409,4429 2410,4428 2411,4428 2412,4429 2413,4429 2414,4429 2415,4429 2416,4430 2417,4430 2417,4431 2418,4432 2420,4434 2421,4436 2422,4439 2423,4442 2426,4450 2427,4460 2429,4472 2430,4487 Z M 2727,4487 L 2728,4503 2728,4517 2728,4527 2727,4531 2726,4534 2725,4537 2725,4538 2724,4540 2723,4541 2723,4541 2722,4542 2721,4543 2720,4543 2719,4544 2718,4544 2717,4544 2715,4545 2712,4545 2709,4545 2707,4544 2705,4544 2704,4544 2703,4543 2702,4543 2701,4542 2701,4541 2700,4540 2699,4539 2698,4537 2697,4534 2696,4531 2695,4527 2694,4516 2693,4503 2693,4487 2693,4472 2694,4459 2695,4449 2696,4445 2696,4441 2697,4438 2698,4435 2700,4433 2700,4432 2701,4431 2702,4431 2703,4430 2703,4430 2704,4429 2705,4429 2706,4429 2707,4428 2708,4428 2709,4429 2710,4429 2711,4429 2711,4429 2712,4430 2713,4430 2714,4431 2715,4432 2716,4434 2718,4436 2719,4439 2720,4442 2722,4450 2724,4460 2726,4472 2727,4487 Z M 3585,4487 L 3588,4545 3549,4545 3539,4545 3530,4544 3526,4543 3523,4542 3520,4541 3517,4540 3514,4539 3512,4537 3510,4536 3508,4534 3507,4532 3506,4529 3504,4527 3503,4524 3502,4518 3501,4513 3501,4509 3502,4504 3503,4499 3504,4495 3507,4491 3509,4487 3512,4483 3515,4480 3519,4477 3523,4475 3528,4473 3532,4472 3537,4471 3543,4471 3545,4471 3548,4471 3550,4470 3552,4470 3554,4469 3556,4468 3556,4468 3557,4467 3558,4467 3558,4466 3559,4465 3559,4465 3559,4464 3559,4463 3560,4461 3560,4460 3560,4457 3560,4455 3559,4452 3558,4449 3558,4445 3557,4442 3557,4440 3557,4438 3557,4437 3558,4435 3558,4434 3559,4433 3560,4431 3560,4431 3561,4431 3561,4430 3562,4430 3563,4429 3564,4429 3565,4429 3567,4428 3568,4429 3569,4429 3569,4429 3570,4429 3571,4430 3572,4430 3573,4431 3573,4432 3575,4434 3576,4437 3577,4439 3578,4443 3580,4451 3582,4461 3584,4473 3585,4487 Z M 4358,4487 L 4359,4515 4358,4526 4358,4530 4357,4533 4357,4536 4356,4539 4355,4540 4354,4541 4354,4542 4353,4542 4352,4543 4352,4544 4351,4544 4350,4544 4349,4545 4348,4545 4346,4545 4343,4545 4342,4545 4341,4544 4340,4544 4339,4543 4339,4543 4338,4542 4337,4541 4336,4540 4335,4538 4334,4536 4333,4533 4332,4529 4331,4525 4330,4515 4330,4502 4330,4487 4331,4461 4332,4451 4333,4443 4335,4436 4336,4434 4337,4432 4338,4430 4340,4429 4340,4428 4341,4428 4341,4428 4342,4428 4343,4428 4343,4428 4344,4428 4344,4429 4346,4430 4347,4432 4348,4434 4349,4436 4352,4443 4354,4451 4355,4461 4358,4487 Z M 4663,4462 L 4664,4473 4664,4480 4665,4483 4665,4486 4665,4487 4666,4487 4666,4488 4666,4488 4667,4489 4667,4489 4667,4489 4667,4489 4668,4489 4668,4489 4669,4489 4669,4488 4671,4487 4672,4486 4674,4484 4678,4478 4681,4475 4685,4472 4688,4469 4692,4466 4696,4464 4700,4463 4704,4461 4708,4460 4712,4460 4715,4460 4719,4460 4720,4461 4721,4461 4723,4462 4724,4463 4725,4463 4725,4464 4726,4465 4727,4467 4727,4468 4727,4470 4727,4470 4727,4471 4727,4471 4726,4472 4726,4473 4725,4474 4724,4475 4723,4477 4722,4478 4720,4479 4717,4481 4713,4484 4708,4486 4703,4488 4696,4490 4693,4491 4691,4492 4689,4493 4688,4494 4688,4495 4687,4495 4687,4496 4687,4496 4687,4497 4687,4498 4688,4499 4688,4500 4689,4501 4691,4503 4693,4505 4710,4519 4717,4526 4723,4532 4725,4534 4727,4536 4728,4538 4729,4540 4729,4540 4729,4541 4729,4542 4729,4542 4729,4543 4729,4543 4728,4543 4728,4544 4727,4544 4727,4544 4725,4545 4723,4545 4721,4545 4718,4545 4716,4545 4714,4544 4712,4543 4706,4542 4701,4539 4696,4536 4691,4533 4686,4530 4681,4526 4670,4516 4668,4515 4666,4514 4665,4513 4664,4513 4664,4513 4664,4513 4664,4513 4664,4513 4663,4513 4663,4513 4663,4514 4663,4514 4663,4514 4663,4514 4663,4515 4663,4516 4664,4518 4665,4520 4667,4526 4667,4528 4668,4531 4668,4533 4668,4535 4668,4536 4668,4538 4668,4539 4667,4540 4667,4541 4667,4541 4666,4542 4666,4542 4665,4543 4665,4543 4664,4543 4663,4544 4661,4544 4659,4545 4657,4545 4655,4545 4652,4545 4650,4544 4649,4544 4648,4544 4647,4543 4646,4543 4645,4542 4644,4541 4643,4540 4643,4539 4641,4537 4640,4534 4639,4530 4639,4526 4638,4516 4637,4503 4637,4487 4637,4473 4638,4461 4639,4451 4640,4443 4641,4439 4642,4437 4643,4434 4644,4432 4645,4431 4646,4430 4647,4430 4647,4429 4648,4429 4649,4429 4650,4429 4651,4428 4651,4428 4652,4429 4653,4429 4653,4429 4654,4429 4654,4430 4656,4431 4657,4432 4658,4434 4659,4436 4660,4438 4660,4440 4661,4443 4662,4448 4663,4455 4663,4462 Z M 1051,4449 L 1051,4450 1051,4451 1051,4452 1050,4453 1050,4454 1049,4455 1049,4456 1048,4457 1047,4457 1047,4458 1046,4459 1045,4459 1044,4459 1043,4460 1042,4460 1041,4460 1040,4460 1039,4460 1038,4459 1037,4459 1036,4459 1035,4458 1034,4457 1033,4457 1033,4456 1032,4455 1031,4454 1031,4453 1031,4452 1030,4451 1030,4450 1030,4449 1030,4448 1030,4447 1031,4446 1031,4445 1031,4444 1032,4443 1033,4443 1033,4442 1034,4441 1035,4441 1036,4440 1037,4440 1038,4439 1039,4439 1040,4439 1041,4439 1042,4439 1043,4439 1044,4439 1045,4440 1046,4440 1047,4441 1047,4441 1048,4442 1049,4443 1049,4443 1050,4444 1050,4445 1051,4446 1051,4447 1051,4448 1051,4449 Z M 4452,4449 L 4451,4450 4451,4451 4451,4452 4451,4453 4450,4454 4450,4455 4449,4456 4449,4457 4448,4457 4447,4458 4446,4459 4446,4459 4445,4459 4444,4460 4443,4460 4442,4460 4441,4460 4440,4460 4438,4459 4437,4459 4436,4459 4435,4458 4433,4457 4432,4457 4431,4456 4430,4455 4429,4454 4428,4453 4427,4452 4426,4451 4425,4450 4425,4449 4424,4448 4424,4447 4424,4446 4424,4445 4424,4445 4424,4444 4424,4444 4424,4443 4425,4443 4425,4443 4425,4442 4425,4442 4426,4441 4427,4441 4428,4440 4429,4440 4430,4439 4431,4439 4433,4439 4434,4439 4436,4439 4438,4439 4440,4439 4441,4440 4443,4440 4444,4441 4445,4441 4447,4442 4448,4443 4449,4443 4449,4444 4450,4445 4451,4446 4451,4447 4451,4448 4452,4449 Z M 324,4480 L 326,4483 326,4484 327,4485 327,4487 327,4488 327,4489 327,4490 327,4491 327,4492 326,4492 326,4493 325,4494 325,4494 324,4495 323,4495 322,4496 321,4496 320,4496 319,4496 316,4496 314,4496 311,4495 308,4494 305,4492 302,4490 298,4487 296,4485 295,4484 293,4484 291,4483 290,4483 289,4483 288,4483 288,4483 287,4483 286,4483 286,4483 284,4484 283,4485 282,4486 281,4488 279,4490 278,4492 276,4495 274,4498 273,4501 273,4504 273,4507 273,4509 273,4510 273,4512 274,4513 275,4516 277,4518 279,4521 282,4523 285,4526 289,4528 293,4531 303,4535 310,4538 314,4540 316,4541 316,4541 317,4542 317,4542 317,4542 317,4542 317,4542 317,4542 317,4542 317,4542 317,4543 317,4543 316,4543 315,4543 311,4543 295,4542 288,4541 281,4539 275,4537 269,4535 264,4532 260,4529 256,4526 253,4522 251,4518 250,4516 249,4514 249,4512 248,4510 248,4508 248,4505 248,4503 249,4501 249,4499 250,4497 252,4492 256,4488 259,4484 262,4481 267,4479 271,4477 276,4475 281,4473 287,4472 292,4471 297,4471 302,4471 307,4471 312,4472 316,4473 318,4474 319,4475 321,4476 322,4477 323,4479 324,4480 Z M 453,4508 L 452,4518 452,4522 452,4525 451,4528 450,4531 449,4532 448,4533 448,4534 447,4535 446,4536 445,4536 443,4537 442,4537 439,4538 436,4539 427,4539 416,4540 406,4539 398,4538 395,4538 391,4537 389,4536 386,4535 384,4534 382,4532 380,4531 379,4529 377,4527 376,4525 376,4523 375,4520 374,4514 373,4508 373,4502 374,4497 375,4493 376,4489 377,4487 378,4485 379,4483 380,4482 382,4481 383,4479 385,4478 387,4477 390,4475 395,4474 400,4473 405,4473 411,4472 418,4473 428,4474 432,4475 436,4476 439,4477 442,4478 445,4479 446,4480 447,4481 448,4482 448,4483 449,4484 450,4485 451,4488 452,4491 452,4494 452,4498 453,4508 Z M 650,4510 L 651,4520 652,4527 652,4531 652,4533 652,4536 652,4538 651,4539 651,4540 650,4541 650,4541 649,4542 649,4543 648,4543 647,4543 647,4544 646,4544 644,4545 642,4545 639,4545 637,4545 635,4545 633,4544 631,4543 629,4542 628,4541 627,4540 625,4538 625,4536 624,4534 623,4532 623,4529 622,4526 622,4523 622,4516 622,4513 622,4511 621,4505 620,4503 620,4500 619,4498 618,4495 617,4493 616,4491 614,4489 613,4488 612,4486 610,4485 609,4484 607,4483 605,4483 604,4483 603,4483 602,4483 601,4483 601,4483 600,4483 600,4483 599,4484 599,4484 598,4485 598,4485 597,4486 597,4487 596,4489 596,4491 596,4493 596,4496 596,4503 598,4512 599,4521 599,4528 599,4531 599,4534 598,4536 598,4538 597,4540 597,4541 596,4541 595,4542 595,4542 594,4543 593,4543 593,4544 592,4544 590,4545 588,4545 585,4545 583,4545 581,4545 579,4544 578,4543 576,4542 575,4541 573,4539 572,4538 571,4536 571,4534 570,4531 570,4529 569,4526 569,4523 569,4516 569,4513 569,4511 568,4505 567,4503 567,4500 566,4498 565,4495 564,4493 563,4491 562,4489 560,4488 559,4486 557,4485 556,4484 554,4483 552,4483 551,4483 550,4483 549,4483 548,4483 548,4483 547,4483 547,4483 546,4484 546,4484 545,4485 545,4485 544,4486 544,4487 543,4489 543,4491 543,4493 543,4496 544,4503 545,4512 546,4520 546,4527 546,4530 546,4533 545,4535 545,4538 544,4539 544,4540 543,4541 543,4542 542,4542 541,4543 541,4543 540,4544 539,4544 537,4545 535,4545 533,4545 531,4545 529,4544 527,4544 526,4543 525,4543 524,4542 524,4542 522,4540 521,4538 520,4536 519,4534 518,4531 518,4528 517,4525 517,4517 516,4508 516,4470 580,4473 600,4474 616,4475 622,4476 627,4477 631,4479 635,4480 636,4481 638,4482 639,4483 640,4485 641,4486 642,4487 644,4491 646,4495 647,4499 650,4510 Z M 780,4487 L 781,4489 781,4491 781,4492 781,4493 781,4494 781,4495 781,4495 780,4496 780,4497 780,4497 779,4498 779,4498 778,4499 777,4500 775,4500 773,4501 771,4501 768,4502 765,4502 759,4502 753,4503 750,4503 748,4503 745,4504 743,4504 742,4505 740,4506 739,4507 738,4508 737,4508 737,4509 737,4509 736,4510 736,4511 736,4511 736,4512 736,4513 736,4513 736,4514 736,4515 736,4515 737,4517 738,4518 738,4519 739,4520 741,4521 742,4523 743,4523 745,4524 746,4525 748,4526 750,4526 752,4527 753,4527 755,4528 757,4528 759,4528 760,4528 762,4528 764,4528 765,4528 767,4528 768,4528 770,4529 771,4529 772,4530 773,4530 774,4531 774,4532 775,4533 775,4533 775,4533 776,4534 776,4534 776,4535 776,4535 776,4536 776,4536 775,4537 775,4537 775,4538 774,4538 773,4539 772,4540 770,4541 769,4541 767,4542 762,4543 757,4544 751,4545 745,4545 739,4545 732,4543 727,4542 722,4539 717,4537 713,4533 710,4529 707,4525 705,4521 704,4516 703,4511 703,4506 704,4501 706,4496 709,4492 712,4487 716,4483 720,4480 724,4478 729,4475 734,4474 739,4473 744,4472 749,4472 754,4472 759,4473 764,4474 768,4475 772,4478 774,4479 775,4480 777,4482 778,4483 779,4485 780,4487 Z M 966,4481 L 966,4482 966,4482 966,4483 966,4484 965,4485 964,4486 964,4487 963,4488 961,4489 960,4489 959,4490 958,4490 956,4491 954,4491 953,4492 951,4492 949,4492 947,4492 945,4492 943,4493 942,4493 941,4494 940,4494 940,4495 939,4495 938,4496 938,4496 937,4498 937,4500 936,4502 936,4504 936,4506 936,4509 936,4512 937,4518 938,4525 938,4528 938,4531 938,4533 938,4535 938,4537 937,4539 937,4540 936,4540 936,4541 935,4542 935,4542 934,4543 934,4543 933,4543 931,4544 929,4545 927,4545 925,4545 923,4545 921,4544 919,4544 918,4543 917,4543 916,4542 915,4542 915,4541 914,4540 913,4539 912,4537 911,4534 910,4532 909,4529 909,4525 908,4517 908,4508 908,4496 909,4488 910,4484 911,4481 912,4479 912,4478 913,4477 914,4476 915,4475 916,4474 917,4474 918,4473 919,4473 922,4472 925,4471 929,4471 938,4471 944,4471 949,4472 954,4472 956,4473 958,4474 960,4474 962,4475 963,4476 964,4477 965,4478 966,4479 966,4479 966,4480 966,4480 966,4481 966,4481 Z M 1053,4508 L 1054,4518 1054,4526 1054,4529 1054,4532 1054,4535 1053,4537 1052,4539 1052,4540 1051,4541 1050,4541 1050,4542 1049,4543 1048,4543 1048,4544 1047,4544 1045,4545 1043,4545 1041,4545 1038,4545 1037,4544 1036,4544 1035,4544 1034,4543 1033,4543 1032,4542 1032,4542 1030,4540 1029,4538 1028,4536 1027,4534 1027,4531 1026,4528 1026,4525 1025,4517 1025,4508 1025,4500 1026,4493 1027,4487 1028,4481 1029,4479 1030,4477 1031,4475 1032,4474 1033,4472 1034,4472 1034,4472 1035,4471 1035,4471 1036,4471 1036,4471 1037,4471 1038,4471 1038,4471 1039,4472 1040,4472 1040,4472 1042,4474 1043,4475 1044,4477 1046,4479 1047,4482 1049,4487 1051,4493 1052,4500 1053,4508 Z M 1184,4480 L 1184,4481 1185,4482 1185,4483 1185,4484 1185,4486 1185,4487 1185,4488 1185,4489 1184,4490 1184,4491 1183,4492 1183,4493 1182,4494 1181,4495 1180,4495 1179,4496 1178,4497 1177,4497 1176,4498 1175,4498 1174,4498 1173,4498 1172,4498 1170,4498 1169,4497 1168,4497 1167,4496 1166,4496 1165,4495 1164,4494 1163,4493 1162,4492 1160,4489 1158,4486 1155,4484 1154,4483 1153,4483 1152,4482 1151,4482 1150,4481 1149,4481 1148,4481 1147,4482 1146,4482 1145,4482 1144,4483 1143,4484 1142,4484 1141,4485 1141,4486 1140,4488 1139,4490 1138,4493 1138,4497 1138,4501 1138,4505 1138,4508 1139,4511 1140,4514 1141,4516 1142,4518 1143,4520 1144,4522 1146,4523 1147,4525 1149,4526 1152,4527 1154,4527 1156,4528 1159,4528 1162,4528 1166,4528 1170,4528 1174,4528 1178,4529 1180,4530 1182,4530 1183,4531 1185,4531 1186,4532 1187,4533 1187,4533 1188,4534 1188,4534 1188,4534 1189,4535 1189,4535 1189,4536 1189,4536 1189,4537 1189,4537 1189,4538 1188,4538 1188,4539 1187,4539 1186,4540 1185,4541 1183,4541 1181,4542 1179,4542 1174,4543 1169,4543 1162,4543 1156,4543 1148,4542 1141,4540 1135,4538 1129,4536 1124,4533 1119,4530 1115,4526 1112,4523 1109,4519 1108,4517 1107,4515 1107,4512 1106,4510 1106,4508 1106,4506 1106,4504 1106,4501 1107,4499 1108,4497 1110,4492 1114,4488 1117,4484 1121,4481 1125,4479 1130,4477 1135,4475 1140,4473 1145,4472 1151,4471 1156,4471 1161,4471 1166,4471 1170,4472 1175,4473 1176,4474 1178,4475 1180,4476 1181,4477 1182,4479 1184,4480 Z M 1319,4494 L 1322,4498 1323,4501 1323,4503 1324,4505 1324,4508 1324,4510 1324,4512 1324,4514 1323,4517 1322,4519 1321,4521 1319,4525 1316,4529 1312,4532 1308,4535 1303,4538 1298,4540 1292,4542 1286,4544 1279,4545 1272,4545 1266,4545 1261,4543 1255,4542 1251,4539 1246,4536 1243,4533 1239,4529 1237,4525 1235,4520 1234,4516 1234,4511 1234,4506 1235,4500 1237,4495 1239,4490 1243,4486 1245,4484 1246,4482 1251,4479 1255,4477 1260,4475 1265,4474 1271,4473 1277,4473 1282,4473 1288,4474 1293,4476 1299,4478 1304,4480 1309,4483 1313,4486 1316,4490 1319,4494 Z M 1480,4494 L 1489,4518 1493,4494 1493,4492 1494,4489 1495,4487 1496,4485 1497,4483 1498,4481 1499,4479 1500,4478 1502,4476 1503,4475 1505,4474 1506,4473 1508,4472 1509,4471 1511,4471 1511,4471 1512,4471 1514,4471 1516,4471 1517,4471 1518,4472 1518,4472 1519,4472 1519,4473 1520,4473 1520,4474 1521,4475 1521,4475 1521,4476 1521,4478 1521,4480 1520,4483 1518,4490 1511,4510 1502,4529 1494,4545 1490,4551 1486,4557 1483,4562 1479,4566 1475,4569 1472,4572 1470,4573 1468,4573 1466,4574 1465,4574 1463,4574 1461,4574 1460,4573 1458,4573 1456,4572 1455,4571 1453,4570 1452,4568 1449,4565 1447,4563 1447,4562 1446,4561 1446,4560 1445,4560 1445,4559 1445,4559 1445,4559 1445,4558 1446,4558 1446,4557 1446,4557 1447,4557 1447,4557 1448,4556 1449,4556 1450,4556 1452,4556 1457,4555 1461,4555 1464,4555 1467,4554 1469,4554 1470,4553 1471,4553 1472,4552 1472,4551 1473,4551 1473,4550 1473,4549 1474,4547 1474,4546 1473,4543 1472,4539 1470,4535 1468,4531 1462,4519 1454,4505 1442,4485 1441,4482 1440,4479 1439,4477 1439,4476 1439,4475 1439,4475 1439,4474 1439,4473 1439,4473 1440,4472 1440,4472 1441,4472 1442,4471 1444,4471 1446,4471 1453,4471 1455,4471 1457,4471 1459,4472 1461,4473 1463,4474 1465,4475 1467,4476 1469,4478 1471,4479 1472,4481 1474,4483 1476,4485 1477,4487 1478,4489 1479,4492 1480,4494 Z M 1714,4510 L 1715,4521 1716,4529 1716,4533 1715,4535 1715,4537 1714,4538 1714,4539 1713,4540 1712,4541 1712,4541 1711,4542 1710,4543 1709,4543 1707,4543 1704,4544 1701,4545 1697,4545 1688,4545 1681,4545 1675,4544 1669,4543 1663,4541 1658,4540 1656,4539 1654,4538 1652,4537 1651,4536 1650,4534 1649,4533 1648,4532 1647,4530 1647,4529 1647,4529 1647,4528 1647,4528 1647,4527 1647,4527 1647,4526 1648,4526 1648,4526 1648,4525 1649,4525 1650,4525 1651,4525 1653,4525 1655,4525 1657,4525 1663,4526 1670,4528 1676,4529 1682,4530 1684,4530 1686,4530 1688,4530 1690,4530 1691,4530 1691,4530 1692,4529 1692,4529 1692,4529 1693,4528 1693,4528 1693,4528 1693,4527 1693,4527 1693,4526 1693,4526 1693,4525 1692,4524 1691,4523 1690,4522 1690,4521 1689,4520 1687,4519 1686,4518 1685,4517 1683,4516 1682,4516 1681,4515 1679,4514 1677,4514 1676,4514 1674,4513 1673,4513 1671,4513 1669,4513 1668,4513 1666,4513 1664,4512 1663,4512 1661,4511 1660,4510 1658,4510 1657,4509 1656,4508 1654,4507 1653,4506 1652,4505 1651,4504 1650,4503 1650,4502 1648,4499 1647,4497 1647,4496 1646,4494 1646,4493 1646,4491 1646,4490 1646,4488 1647,4487 1647,4486 1648,4484 1649,4483 1650,4482 1651,4481 1652,4480 1654,4478 1658,4476 1661,4475 1665,4474 1669,4473 1674,4472 1678,4472 1684,4473 1691,4474 1694,4475 1697,4476 1700,4477 1702,4478 1705,4480 1706,4482 1708,4484 1709,4487 1711,4489 1712,4493 1712,4496 1713,4500 1714,4510 Z M 1847,4510 L 1849,4521 1849,4526 1850,4530 1850,4534 1849,4535 1849,4536 1849,4538 1848,4539 1848,4540 1847,4541 1846,4541 1845,4542 1844,4543 1843,4543 1840,4544 1836,4544 1826,4545 1813,4545 1799,4545 1789,4544 1785,4544 1782,4543 1781,4542 1780,4542 1778,4541 1777,4540 1777,4539 1776,4538 1775,4537 1775,4536 1775,4534 1774,4533 1774,4530 1774,4526 1774,4521 1776,4510 1778,4497 1780,4485 1781,4477 1781,4474 1781,4473 1781,4473 1781,4473 1781,4473 1782,4472 1782,4472 1783,4472 1784,4472 1785,4472 1787,4471 1790,4471 1794,4471 1799,4472 1811,4473 1815,4473 1819,4474 1822,4475 1825,4476 1828,4477 1831,4479 1833,4480 1835,4482 1837,4485 1839,4487 1841,4490 1842,4493 1843,4497 1845,4501 1847,4510 Z M 1995,4510 L 1997,4520 1997,4527 1998,4531 1998,4533 1997,4536 1997,4538 1997,4539 1996,4540 1996,4541 1995,4541 1995,4542 1994,4543 1993,4543 1993,4543 1992,4544 1991,4544 1989,4545 1987,4545 1984,4545 1982,4545 1980,4545 1978,4544 1976,4543 1975,4542 1973,4541 1972,4540 1971,4538 1970,4536 1969,4534 1968,4532 1968,4529 1967,4526 1967,4523 1967,4516 1967,4513 1967,4511 1966,4505 1966,4503 1965,4500 1964,4498 1963,4495 1962,4493 1961,4491 1960,4489 1958,4488 1957,4486 1956,4485 1954,4484 1953,4483 1951,4483 1949,4483 1948,4483 1947,4483 1947,4483 1946,4483 1945,4483 1945,4483 1944,4484 1944,4484 1943,4485 1943,4485 1943,4486 1942,4487 1942,4489 1941,4491 1941,4493 1941,4496 1942,4503 1943,4512 1944,4521 1945,4528 1945,4531 1944,4534 1944,4536 1943,4538 1943,4539 1942,4540 1942,4541 1941,4541 1940,4542 1940,4543 1939,4543 1938,4544 1936,4544 1934,4545 1931,4545 1928,4545 1926,4545 1923,4545 1921,4544 1919,4543 1918,4543 1917,4542 1916,4541 1916,4541 1914,4539 1913,4537 1912,4535 1911,4532 1911,4529 1910,4525 1909,4517 1909,4507 1909,4495 1909,4490 1910,4485 1910,4482 1911,4479 1912,4478 1913,4476 1913,4476 1914,4475 1915,4474 1917,4473 1918,4473 1919,4472 1922,4472 1926,4472 1936,4472 1948,4473 1960,4474 1969,4476 1973,4477 1977,4478 1980,4480 1982,4481 1985,4483 1987,4486 1988,4489 1990,4492 1991,4496 1993,4500 1995,4510 Z M 2135,4494 L 2137,4498 2138,4501 2139,4503 2139,4505 2140,4508 2140,4510 2140,4512 2139,4514 2139,4517 2138,4519 2137,4521 2135,4525 2132,4529 2128,4532 2124,4535 2119,4538 2114,4540 2108,4542 2102,4544 2095,4545 2088,4545 2082,4545 2076,4543 2071,4542 2066,4539 2062,4536 2058,4533 2055,4529 2053,4525 2051,4520 2050,4516 2049,4511 2049,4506 2050,4500 2052,4495 2055,4490 2059,4486 2060,4484 2062,4482 2066,4479 2071,4477 2076,4475 2081,4474 2086,4473 2092,4473 2098,4473 2104,4474 2109,4476 2114,4478 2119,4480 2124,4483 2128,4486 2132,4490 2135,4494 Z M 2322,4474 L 2322,4474 2322,4474 2322,4475 2323,4477 2325,4486 2332,4511 2342,4545 2301,4545 2288,4545 2278,4544 2274,4544 2271,4543 2270,4542 2269,4541 2267,4541 2266,4540 2266,4539 2265,4538 2264,4537 2264,4535 2263,4532 2262,4529 2262,4525 2262,4520 2262,4508 2262,4497 2263,4488 2264,4485 2265,4482 2266,4479 2267,4478 2268,4477 2269,4476 2269,4475 2270,4475 2271,4474 2274,4473 2277,4472 2280,4471 2284,4471 2292,4471 2304,4471 2313,4472 2317,4472 2320,4472 2321,4473 2321,4473 2322,4473 2322,4473 2322,4473 2322,4474 2322,4474 2322,4474 2322,4474 Z M 2631,4510 L 2633,4521 2633,4526 2634,4530 2634,4534 2633,4535 2633,4536 2633,4538 2632,4539 2632,4540 2631,4541 2630,4541 2629,4542 2628,4543 2627,4543 2624,4544 2620,4544 2610,4545 2597,4545 2583,4545 2573,4544 2569,4544 2566,4543 2565,4542 2563,4542 2562,4541 2561,4540 2561,4539 2560,4538 2559,4537 2559,4536 2558,4534 2558,4533 2558,4530 2558,4526 2558,4521 2559,4510 2562,4497 2563,4485 2564,4477 2565,4474 2565,4473 2565,4473 2565,4473 2565,4472 2566,4472 2567,4472 2568,4472 2569,4472 2571,4471 2574,4471 2578,4471 2583,4472 2595,4473 2599,4473 2603,4474 2606,4475 2609,4476 2612,4477 2615,4479 2617,4480 2619,4482 2621,4485 2623,4487 2625,4490 2626,4493 2627,4497 2628,4501 2631,4510 Z M 2852,4480 L 2852,4481 2852,4483 2851,4484 2851,4485 2851,4486 2850,4488 2850,4489 2849,4490 2848,4491 2847,4492 2847,4493 2846,4494 2845,4495 2844,4496 2843,4497 2841,4497 2840,4498 2839,4498 2838,4498 2837,4499 2836,4499 2836,4499 2835,4498 2834,4498 2833,4498 2833,4497 2832,4497 2832,4496 2831,4496 2831,4495 2831,4494 2831,4493 2831,4492 2830,4491 2830,4490 2829,4489 2829,4488 2828,4487 2827,4486 2826,4485 2825,4484 2823,4483 2822,4483 2820,4482 2819,4482 2817,4482 2816,4481 2814,4481 2812,4481 2810,4482 2809,4482 2807,4483 2806,4484 2805,4485 2804,4486 2803,4487 2802,4489 2801,4490 2801,4492 2801,4494 2801,4497 2801,4499 2801,4505 2802,4508 2802,4511 2803,4514 2804,4516 2805,4518 2806,4520 2807,4522 2809,4523 2811,4525 2812,4526 2815,4527 2817,4527 2819,4528 2822,4528 2825,4528 2828,4528 2833,4528 2838,4528 2842,4529 2843,4530 2845,4530 2847,4531 2848,4531 2849,4532 2850,4533 2850,4533 2851,4534 2851,4534 2851,4534 2852,4535 2852,4535 2852,4536 2852,4536 2852,4537 2852,4537 2852,4538 2851,4538 2851,4539 2850,4539 2849,4540 2848,4541 2846,4541 2844,4542 2842,4542 2837,4543 2831,4543 2825,4543 2818,4543 2812,4542 2806,4541 2801,4539 2796,4537 2792,4535 2788,4532 2785,4529 2782,4525 2780,4521 2779,4517 2778,4513 2777,4508 2778,4503 2778,4497 2780,4492 2782,4486 2783,4484 2784,4483 2785,4481 2787,4480 2791,4478 2796,4476 2801,4474 2807,4473 2813,4472 2819,4471 2825,4471 2831,4471 2837,4471 2842,4472 2846,4473 2848,4474 2849,4475 2850,4476 2851,4477 2852,4479 2852,4479 2852,4480 Z M 2968,4474 L 2968,4474 2968,4474 2969,4475 2969,4477 2971,4486 2978,4511 2989,4545 2947,4545 2934,4545 2924,4544 2921,4544 2917,4543 2916,4542 2915,4541 2913,4541 2912,4540 2912,4539 2911,4538 2910,4537 2910,4535 2909,4532 2908,4529 2908,4525 2908,4520 2908,4508 2909,4497 2910,4488 2910,4485 2911,4482 2912,4479 2913,4478 2914,4477 2915,4476 2916,4475 2917,4475 2918,4474 2920,4473 2923,4472 2926,4471 2930,4471 2939,4471 2950,4471 2960,4472 2963,4472 2966,4472 2967,4473 2967,4473 2968,4473 2968,4473 2968,4473 2968,4474 2968,4474 2968,4474 2968,4474 Z M 3128,4510 L 3130,4520 3131,4527 3131,4531 3131,4533 3131,4536 3130,4538 3130,4539 3129,4540 3129,4541 3128,4541 3128,4542 3127,4543 3127,4543 3126,4543 3125,4544 3124,4544 3122,4545 3120,4545 3118,4545 3115,4545 3113,4545 3111,4544 3110,4543 3108,4542 3106,4541 3105,4540 3104,4538 3103,4536 3102,4534 3102,4532 3101,4529 3101,4526 3101,4523 3101,4516 3101,4513 3101,4511 3100,4505 3099,4503 3098,4500 3098,4498 3097,4495 3096,4493 3094,4491 3093,4489 3092,4488 3091,4486 3089,4485 3088,4484 3086,4483 3084,4483 3082,4483 3082,4483 3081,4483 3080,4483 3079,4483 3079,4483 3078,4483 3078,4484 3077,4484 3077,4485 3076,4485 3076,4486 3076,4487 3075,4489 3075,4491 3075,4493 3075,4496 3075,4503 3077,4512 3078,4521 3078,4528 3078,4531 3078,4534 3077,4536 3077,4538 3076,4539 3076,4540 3075,4541 3074,4541 3074,4542 3073,4543 3072,4543 3071,4544 3069,4544 3067,4545 3064,4545 3062,4545 3059,4545 3056,4545 3054,4544 3052,4543 3051,4543 3051,4542 3050,4541 3049,4541 3048,4539 3047,4537 3046,4535 3045,4532 3044,4529 3043,4525 3043,4517 3043,4507 3043,4495 3043,4490 3043,4485 3044,4482 3045,4479 3045,4478 3046,4476 3047,4476 3048,4475 3049,4474 3050,4473 3051,4473 3053,4472 3056,4472 3059,4472 3069,4472 3082,4473 3093,4474 3103,4476 3107,4477 3110,4478 3113,4480 3116,4481 3118,4483 3120,4486 3122,4489 3123,4492 3125,4496 3126,4500 3128,4510 Z M 3254,4487 L 3254,4490 3253,4493 3253,4494 3253,4496 3252,4497 3251,4498 3251,4499 3250,4499 3249,4500 3248,4501 3247,4501 3246,4502 3245,4502 3244,4502 3243,4502 3242,4502 3241,4502 3240,4501 3239,4501 3238,4501 3237,4500 3236,4499 3235,4497 3233,4495 3231,4492 3230,4489 3229,4487 3229,4486 3228,4484 3227,4483 3227,4483 3227,4483 3226,4482 3226,4482 3225,4482 3225,4482 3224,4482 3224,4482 3223,4482 3223,4482 3222,4482 3220,4483 3219,4483 3217,4484 3216,4486 3212,4489 3209,4492 3207,4494 3206,4496 3205,4498 3204,4500 3204,4502 3203,4504 3203,4506 3203,4508 3203,4510 3203,4512 3204,4516 3205,4519 3208,4522 3209,4524 3210,4525 3211,4527 3213,4528 3215,4529 3216,4530 3218,4531 3220,4531 3222,4532 3224,4532 3226,4532 3229,4532 3231,4532 3233,4531 3238,4530 3240,4530 3241,4530 3243,4530 3245,4530 3247,4530 3248,4530 3250,4530 3251,4531 3252,4532 3252,4532 3253,4532 3253,4533 3253,4533 3254,4534 3254,4534 3254,4535 3254,4535 3254,4536 3254,4536 3254,4537 3254,4537 3254,4538 3254,4538 3253,4539 3253,4539 3252,4540 3250,4541 3248,4541 3246,4542 3244,4542 3239,4543 3234,4543 3227,4543 3221,4543 3214,4542 3208,4541 3203,4539 3198,4537 3194,4535 3190,4532 3187,4529 3185,4525 3183,4521 3181,4517 3180,4513 3180,4508 3180,4503 3181,4497 3183,4492 3185,4486 3185,4484 3187,4482 3188,4480 3190,4479 3192,4478 3194,4476 3199,4474 3204,4473 3210,4471 3216,4471 3222,4471 3228,4471 3234,4472 3240,4473 3244,4475 3247,4476 3248,4477 3250,4478 3252,4480 3253,4481 3254,4483 3254,4485 3254,4487 Z M 3380,4489 L 3380,4490 3380,4491 3380,4492 3380,4493 3380,4493 3379,4494 3379,4494 3379,4495 3378,4496 3378,4496 3377,4497 3376,4498 3375,4499 3373,4500 3371,4500 3369,4501 3367,4501 3364,4502 3361,4502 3355,4502 3349,4503 3346,4503 3343,4503 3341,4504 3339,4504 3337,4505 3335,4506 3334,4507 3333,4508 3333,4508 3332,4509 3332,4509 3331,4510 3331,4511 3331,4511 3331,4512 3331,4513 3331,4513 3331,4514 3331,4515 3332,4515 3332,4516 3332,4517 3333,4518 3334,4519 3335,4520 3337,4521 3338,4522 3340,4523 3342,4524 3343,4525 3346,4526 3348,4526 3350,4527 3352,4527 3355,4527 3357,4527 3359,4527 3362,4527 3364,4526 3366,4526 3368,4526 3370,4527 3371,4527 3373,4527 3375,4528 3376,4529 3378,4529 3379,4530 3380,4531 3381,4532 3381,4533 3381,4533 3381,4534 3381,4534 3382,4535 3382,4535 3382,4536 3381,4536 3381,4537 3381,4538 3381,4538 3380,4539 3380,4539 3379,4539 3378,4540 3376,4541 3374,4542 3372,4542 3369,4543 3367,4543 3361,4543 3355,4543 3348,4543 3341,4542 3335,4541 3330,4539 3325,4537 3321,4535 3317,4532 3314,4529 3311,4525 3309,4521 3308,4517 3307,4513 3307,4508 3307,4503 3308,4497 3310,4492 3312,4486 3312,4484 3314,4482 3315,4481 3316,4479 3318,4478 3320,4477 3324,4475 3329,4474 3334,4473 3340,4473 3346,4473 3351,4473 3357,4474 3362,4476 3367,4478 3371,4480 3373,4481 3375,4482 3376,4484 3378,4485 3379,4487 3380,4489 Z M 3714,4487 L 3715,4489 3715,4491 3715,4492 3715,4493 3715,4494 3715,4495 3715,4495 3715,4496 3714,4497 3714,4497 3713,4498 3713,4498 3712,4499 3711,4500 3709,4500 3707,4501 3705,4501 3702,4502 3700,4502 3693,4502 3687,4503 3684,4503 3682,4503 3680,4504 3678,4504 3676,4505 3674,4506 3673,4507 3672,4508 3671,4508 3671,4509 3671,4509 3670,4510 3670,4511 3670,4511 3670,4512 3670,4513 3670,4513 3670,4514 3671,4515 3671,4515 3671,4517 3672,4518 3673,4519 3674,4520 3675,4521 3676,4523 3678,4523 3679,4524 3681,4525 3682,4526 3684,4526 3686,4527 3688,4527 3689,4528 3691,4528 3693,4528 3697,4528 3700,4528 3703,4528 3704,4529 3705,4529 3706,4530 3707,4530 3708,4531 3708,4531 3709,4532 3709,4533 3709,4534 3709,4534 3710,4535 3709,4536 3709,4537 3709,4538 3708,4539 3708,4540 3706,4541 3704,4543 3702,4545 3699,4546 3695,4548 3693,4549 3691,4549 3689,4549 3687,4549 3683,4549 3678,4548 3673,4546 3668,4544 3663,4541 3659,4538 3654,4535 3650,4532 3646,4528 3642,4524 3640,4520 3637,4516 3637,4514 3636,4513 3636,4511 3636,4509 3636,4506 3636,4503 3637,4500 3639,4497 3640,4494 3642,4491 3644,4489 3646,4486 3651,4482 3657,4478 3663,4475 3670,4473 3677,4471 3684,4470 3690,4471 3693,4471 3696,4472 3699,4473 3702,4474 3705,4475 3707,4477 3709,4479 3711,4481 3713,4484 3714,4487 Z M 3869,4504 L 3869,4511 3870,4517 3870,4520 3871,4522 3871,4525 3872,4526 3873,4528 3874,4529 3875,4530 3875,4530 3876,4531 3876,4531 3877,4531 3878,4532 3878,4532 3879,4532 3880,4532 3881,4532 3882,4531 3883,4531 3884,4531 3885,4530 3886,4529 3887,4527 3888,4526 3889,4524 3890,4522 3891,4520 3893,4515 3894,4510 3895,4505 3895,4502 3895,4499 3895,4492 3896,4486 3897,4481 3898,4479 3899,4477 3899,4475 3900,4474 3901,4473 3902,4472 3904,4471 3905,4471 3906,4471 3907,4471 3908,4472 3910,4473 3911,4474 3912,4475 3913,4476 3915,4478 3917,4482 3919,4487 3921,4493 3923,4500 3924,4508 3925,4520 3926,4525 3926,4529 3925,4532 3925,4535 3924,4537 3924,4538 3923,4539 3922,4540 3921,4541 3920,4541 3919,4542 3918,4543 3915,4544 3911,4544 3901,4545 3889,4545 3880,4545 3872,4544 3864,4543 3861,4542 3858,4541 3855,4540 3853,4538 3851,4537 3849,4535 3847,4534 3846,4532 3844,4530 3843,4528 3841,4522 3840,4517 3839,4512 3838,4506 3837,4501 3837,4497 3837,4492 3838,4488 3839,4484 3840,4481 3841,4478 3842,4477 3843,4476 3844,4474 3845,4474 3846,4473 3848,4472 3849,4471 3850,4471 3852,4471 3853,4471 3855,4471 3857,4471 3858,4472 3860,4473 3861,4474 3863,4475 3864,4477 3865,4479 3866,4481 3867,4483 3867,4486 3868,4489 3868,4496 3869,4504 Z M 4071,4510 L 4073,4520 4074,4527 4074,4531 4074,4533 4073,4536 4073,4538 4073,4539 4072,4540 4072,4541 4071,4541 4071,4542 4070,4543 4070,4543 4069,4543 4068,4544 4067,4544 4065,4545 4063,4545 4061,4545 4058,4545 4056,4545 4054,4544 4052,4543 4051,4542 4049,4541 4048,4540 4047,4538 4046,4536 4045,4534 4044,4532 4044,4529 4044,4526 4043,4523 4043,4516 4043,4513 4043,4511 4042,4505 4042,4503 4041,4500 4040,4498 4039,4495 4038,4493 4037,4491 4036,4489 4035,4488 4033,4486 4032,4485 4030,4484 4029,4483 4027,4483 4025,4483 4024,4483 4024,4483 4023,4483 4022,4483 4022,4483 4021,4483 4020,4484 4020,4484 4020,4485 4019,4485 4019,4486 4018,4487 4018,4489 4018,4491 4017,4493 4017,4496 4018,4503 4019,4512 4020,4521 4021,4528 4021,4531 4021,4534 4020,4536 4019,4538 4019,4539 4018,4540 4018,4541 4017,4541 4016,4542 4016,4543 4015,4543 4014,4544 4012,4544 4010,4545 4007,4545 4004,4545 4002,4545 3999,4545 3997,4544 3995,4543 3994,4543 3993,4542 3993,4541 3992,4541 3990,4539 3989,4537 3988,4535 3987,4532 3987,4529 3986,4525 3985,4517 3985,4507 3985,4495 3986,4490 3986,4485 3987,4482 3988,4479 3988,4478 3989,4476 3990,4476 3991,4475 3992,4474 3993,4473 3994,4473 3995,4472 3998,4472 4002,4472 4012,4472 4025,4473 4036,4474 4046,4476 4049,4477 4053,4478 4056,4480 4058,4481 4061,4483 4063,4486 4064,4489 4066,4492 4067,4496 4069,4500 4071,4510 Z M 4277,4480 L 4277,4481 4278,4482 4278,4483 4278,4484 4278,4486 4278,4487 4278,4488 4278,4489 4277,4490 4277,4491 4276,4492 4276,4493 4275,4494 4274,4495 4273,4495 4272,4496 4271,4497 4270,4497 4269,4498 4268,4498 4267,4498 4266,4498 4265,4498 4264,4498 4262,4497 4261,4497 4260,4496 4259,4496 4258,4495 4257,4494 4256,4493 4255,4492 4253,4489 4251,4486 4249,4484 4247,4483 4246,4483 4245,4482 4244,4482 4243,4481 4242,4481 4241,4481 4240,4482 4239,4482 4238,4482 4237,4483 4236,4484 4235,4484 4234,4485 4234,4486 4233,4488 4232,4490 4231,4493 4231,4497 4231,4501 4231,4505 4232,4508 4232,4510 4233,4513 4234,4515 4235,4517 4236,4519 4237,4521 4238,4522 4240,4523 4241,4525 4243,4526 4245,4526 4247,4527 4249,4527 4251,4528 4253,4528 4255,4528 4257,4528 4259,4528 4260,4528 4262,4528 4263,4528 4265,4529 4266,4529 4267,4530 4268,4530 4269,4531 4270,4532 4271,4533 4271,4533 4271,4533 4271,4534 4271,4534 4271,4535 4271,4535 4271,4536 4271,4536 4271,4537 4271,4537 4270,4538 4270,4538 4269,4539 4268,4540 4266,4541 4264,4541 4262,4542 4258,4543 4253,4544 4247,4545 4241,4545 4234,4545 4228,4543 4222,4542 4217,4539 4213,4537 4209,4533 4206,4529 4203,4525 4201,4521 4199,4516 4199,4511 4199,4506 4200,4501 4202,4496 4204,4492 4208,4487 4211,4484 4215,4481 4219,4478 4223,4476 4228,4474 4234,4473 4239,4472 4244,4471 4250,4471 4255,4471 4260,4471 4264,4472 4268,4474 4272,4475 4273,4476 4275,4478 4276,4479 4277,4480 Z M 4454,4508 L 4454,4518 4455,4526 4455,4529 4454,4532 4454,4535 4453,4537 4452,4539 4452,4540 4451,4541 4451,4541 4450,4542 4449,4543 4449,4543 4448,4544 4447,4544 4445,4545 4443,4545 4441,4545 4439,4545 4437,4544 4436,4544 4435,4544 4434,4543 4433,4543 4433,4542 4432,4542 4431,4540 4430,4538 4428,4536 4428,4534 4427,4531 4426,4528 4426,4525 4425,4517 4425,4508 4425,4500 4426,4493 4427,4487 4428,4481 4429,4479 4430,4477 4431,4475 4432,4474 4433,4472 4434,4472 4434,4472 4435,4471 4435,4471 4436,4471 4437,4471 4437,4471 4438,4471 4439,4471 4439,4472 4440,4472 4441,4472 4442,4474 4443,4475 4445,4477 4446,4479 4447,4482 4449,4487 4451,4493 4453,4500 4454,4508 Z M 4584,4480 L 4584,4481 4585,4482 4585,4483 4585,4484 4585,4486 4585,4487 4585,4488 4585,4489 4584,4490 4584,4491 4583,4492 4583,4493 4582,4494 4581,4495 4580,4495 4579,4496 4578,4497 4577,4497 4576,4498 4575,4498 4574,4498 4573,4498 4572,4498 4571,4498 4570,4497 4568,4497 4567,4496 4566,4496 4565,4495 4564,4494 4563,4493 4563,4492 4560,4489 4558,4486 4556,4484 4555,4483 4553,4483 4552,4482 4551,4482 4550,4481 4549,4481 4548,4481 4547,4482 4546,4482 4545,4482 4544,4483 4543,4484 4542,4484 4541,4485 4541,4486 4540,4488 4539,4490 4538,4493 4538,4497 4538,4501 4538,4505 4539,4507 4539,4510 4540,4512 4541,4515 4542,4517 4543,4519 4544,4521 4546,4522 4547,4524 4549,4525 4550,4526 4552,4527 4554,4528 4555,4529 4557,4529 4559,4529 4563,4529 4567,4530 4571,4531 4574,4532 4578,4533 4581,4534 4584,4536 4585,4537 4586,4537 4586,4538 4587,4538 4587,4539 4587,4539 4587,4540 4587,4540 4587,4541 4586,4541 4586,4541 4586,4542 4585,4542 4584,4542 4583,4543 4581,4543 4579,4543 4577,4543 4572,4544 4566,4543 4558,4543 4551,4542 4543,4540 4536,4538 4530,4536 4525,4533 4520,4530 4516,4526 4512,4523 4510,4519 4509,4517 4508,4515 4507,4512 4507,4510 4506,4508 4506,4506 4506,4504 4507,4501 4507,4499 4508,4497 4511,4492 4514,4488 4517,4484 4521,4481 4525,4479 4530,4477 4535,4475 4540,4473 4546,4472 4551,4471 4556,4471 4561,4471 4566,4471 4571,4472 4575,4473 4578,4475 4580,4476 4582,4477 4583,4479 4584,4480 Z"/>
         </g>
        </g>
        <g class="com.sun.star.drawing.ClosedBezierShape">
         <g id="id5">
          <rect class="BoundingBox" stroke="none" fill="none" x="3303" y="1472" width="139" height="1030"/>
          <path fill="rgb(26,70,33)" stroke="none" d="M 3346,1482 C 3335,1499 3306,1765 3304,1869 3302,1966 3303,1969 3338,2018 3350,2035 3362,2052 3374,2069 3370,2126 3366,2183 3361,2240 3346,2445 3354,2500 3403,2500 3450,2500 3450,2492 3414,2026 3395,1783 3377,1559 3374,1528 3369,1476 3358,1460 3346,1482 Z M 3424,2471 C 3424,2482 3416,2481 3391,2469 3380,2462 3371,2450 3371,2441 3371,2427 3375,2428 3398,2444 3411,2455 3424,2466 3424,2471 Z"/>
         </g>
        </g>
        <g class="com.sun.star.drawing.ClosedBezierShape">
         <g id="id6">
          <rect class="BoundingBox" stroke="none" fill="none" x="1986" y="1477" width="1120" height="831"/>
          <path fill="rgb(26,70,33)" stroke="none" d="M 2285,1479 C 2274,1481 2213,1494 2151,1506 2113,1514 2076,1521 2038,1529 2036,1549 2034,1569 2032,1588 2015,1751 1982,2248 1987,2262 1996,2284 2021,2282 2111,2251 2278,2192 2360,2197 2484,2274 2546,2312 2548,2313 2575,2295 2590,2284 2634,2262 2671,2244 2762,2199 2832,2199 2967,2245 3081,2282 3091,2284 3103,2262 3111,2248 3069,1572 3059,1541 3053,1524 2838,1480 2762,1480 2665,1479 2622,1505 2588,1581 2573,1615 2555,1642 2548,1642 2541,1642 2530,1627 2523,1606 2509,1559 2476,1518 2440,1499 2408,1484 2319,1472 2285,1479 Z M 2553,1962 C 2553,2052 2553,2141 2552,2230 2549,2146 2546,2061 2544,1976 2535,1736 2536,1695 2550,1695 2553,1695 2554,1816 2553,1962 Z"/>
         </g>
        </g>
        <g class="com.sun.star.drawing.ClosedBezierShape">
         <g id="id7">
          <rect class="BoundingBox" stroke="none" fill="none" x="1781" y="3805" width="203" height="284"/>
          <path fill="rgb(26,70,33)" stroke="none" d="M 1813,3834 C 1787,3861 1782,3874 1782,3917 1782,3944 1792,3988 1802,4011 1874,4170 2031,4059 1968,3893 1934,3804 1868,3779 1813,3834 Z"/>
         </g>
        </g>
        <g class="com.sun.star.drawing.ClosedBezierShape">
         <g id="id8">
          <rect class="BoundingBox" stroke="none" fill="none" x="3434" y="3806" width="117" height="103"/>
          <path fill="rgb(26,70,33)" stroke="none" d="M 3479,3810 C 3463,3817 3434,3870 3434,3895 3434,3908 3441,3910 3468,3905 3523,3894 3553,3870 3549,3837 3547,3815 3539,3809 3519,3807 3504,3805 3486,3807 3479,3810 Z"/>
         </g>
        </g>
        <g class="com.sun.star.drawing.ClosedBezierShape">
         <g id="id9">
          <rect class="BoundingBox" stroke="none" fill="none" x="3522" y="4480" width="41" height="56"/>
          <path fill="rgb(26,70,33)" stroke="none" d="M 3526,4491 C 3516,4506 3530,4534 3547,4534 3555,4534 3561,4524 3561,4508 3561,4481 3537,4471 3526,4491 Z"/>
         </g>
        </g>
        <g class="com.sun.star.drawing.ClosedBezierShape">
         <g id="id10">
          <rect class="BoundingBox" stroke="none" fill="none" x="396" y="4483" width="41" height="53"/>
          <path fill="rgb(26,70,33)" stroke="none" d="M 399,4496 C 391,4516 402,4534 422,4534 433,4534 437,4526 435,4511 430,4483 407,4473 399,4496 Z"/>
         </g>
        </g>
        <g class="com.sun.star.drawing.ClosedBezierShape">
         <g id="id11">
          <rect class="BoundingBox" stroke="none" fill="none" x="1258" y="4480" width="38" height="56"/>
          <path fill="rgb(26,70,33)" stroke="none" d="M 1261,4494 C 1253,4514 1263,4534 1280,4534 1288,4534 1295,4524 1295,4508 1295,4480 1269,4471 1261,4494 Z"/>
         </g>
        </g>
        <g class="com.sun.star.drawing.ClosedBezierShape">
         <g id="id12">
          <rect class="BoundingBox" stroke="none" fill="none" x="1665" y="4481" width="34" height="18"/>
          <path fill="rgb(26,70,33)" stroke="none" d="M 1665,4486 C 1665,4488 1673,4492 1681,4496 1690,4499 1697,4497 1697,4492 1697,4486 1690,4481 1681,4481 1673,4481 1665,4483 1665,4486 Z"/>
         </g>
        </g>
        <g class="com.sun.star.drawing.ClosedBezierShape">
         <g id="id13">
          <rect class="BoundingBox" stroke="none" fill="none" x="1796" y="4481" width="30" height="23"/>
          <path fill="rgb(26,70,33)" stroke="none" d="M 1798,4492 C 1795,4497 1799,4502 1808,4502 1817,4502 1824,4497 1824,4492 1824,4486 1820,4481 1815,4481 1808,4481 1801,4486 1798,4492 Z"/>
         </g>
        </g>
        <g class="com.sun.star.drawing.ClosedBezierShape">
         <g id="id14">
          <rect class="BoundingBox" stroke="none" fill="none" x="1792" y="4513" width="30" height="23"/>
          <path fill="rgb(26,70,33)" stroke="none" d="M 1793,4524 C 1793,4529 1797,4534 1802,4534 1808,4534 1816,4529 1819,4524 1822,4517 1818,4513 1810,4513 1800,4513 1793,4517 1793,4524 Z"/>
         </g>
        </g>
        <g class="com.sun.star.drawing.ClosedBezierShape">
         <g id="id15">
          <rect class="BoundingBox" stroke="none" fill="none" x="2073" y="4480" width="39" height="56"/>
          <path fill="rgb(26,70,33)" stroke="none" d="M 2077,4494 C 2069,4514 2079,4534 2095,4534 2104,4534 2111,4524 2111,4508 2111,4480 2085,4471 2077,4494 Z"/>
         </g>
        </g>
        <g class="com.sun.star.drawing.ClosedBezierShape">
         <g id="id16">
          <rect class="BoundingBox" stroke="none" fill="none" x="2279" y="4481" width="24" height="23"/>
          <path fill="rgb(26,70,33)" stroke="none" d="M 2280,4492 C 2280,4497 2285,4502 2290,4502 2297,4502 2301,4497 2301,4492 2301,4486 2297,4481 2290,4481 2285,4481 2280,4486 2280,4492 Z"/>
         </g>
        </g>
        <g class="com.sun.star.drawing.ClosedBezierShape">
         <g id="id17">
          <rect class="BoundingBox" stroke="none" fill="none" x="2279" y="4513" width="24" height="23"/>
          <path fill="rgb(26,70,33)" stroke="none" d="M 2280,4524 C 2280,4529 2285,4534 2290,4534 2297,4534 2301,4529 2301,4524 2301,4517 2297,4513 2290,4513 2285,4513 2280,4517 2280,4524 Z"/>
         </g>
        </g>
        <g class="com.sun.star.drawing.ClosedBezierShape">
         <g id="id18">
          <rect class="BoundingBox" stroke="none" fill="none" x="2580" y="4481" width="30" height="23"/>
          <path fill="rgb(26,70,33)" stroke="none" d="M 2582,4492 C 2579,4497 2583,4502 2591,4502 2601,4502 2608,4497 2608,4492 2608,4486 2604,4481 2599,4481 2592,4481 2585,4486 2582,4492 Z"/>
         </g>
        </g>
        <g class="com.sun.star.drawing.ClosedBezierShape">
         <g id="id19">
          <rect class="BoundingBox" stroke="none" fill="none" x="2576" y="4513" width="30" height="23"/>
          <path fill="rgb(26,70,33)" stroke="none" d="M 2577,4524 C 2577,4529 2581,4534 2586,4534 2592,4534 2600,4529 2603,4524 2606,4517 2602,4513 2593,4513 2584,4513 2577,4517 2577,4524 Z"/>
         </g>
        </g>
        <g class="com.sun.star.drawing.ClosedBezierShape">
         <g id="id20">
          <rect class="BoundingBox" stroke="none" fill="none" x="2926" y="4481" width="23" height="23"/>
          <path fill="rgb(26,70,33)" stroke="none" d="M 2926,4492 C 2926,4497 2931,4502 2937,4502 2943,4502 2947,4497 2947,4492 2947,4486 2943,4481 2937,4481 2931,4481 2926,4486 2926,4492 Z"/>
         </g>
        </g>
        <g class="com.sun.star.drawing.ClosedBezierShape">
         <g id="id21">
          <rect class="BoundingBox" stroke="none" fill="none" x="2926" y="4513" width="23" height="23"/>
          <path fill="rgb(26,70,33)" stroke="none" d="M 2926,4524 C 2926,4529 2931,4534 2937,4534 2943,4534 2947,4529 2947,4524 2947,4517 2943,4513 2937,4513 2931,4513 2926,4517 2926,4524 Z"/>
         </g>
        </g>
        <g class="com.sun.star.drawing.ClosedBezierShape">
         <g id="id22">
          <rect class="BoundingBox" stroke="none" fill="none" x="3332" y="4482" width="28" height="10"/>
          <path fill="rgb(26,70,33)" stroke="none" d="M 3337,4489 C 3344,4492 3354,4491 3357,4488 3361,4485 3355,4481 3343,4482 3332,4482 3328,4486 3337,4489 Z"/>
         </g>
        </g>
       </g>
      </g>
     </g>
    </g>
   </g>
  </g>
 </g>
</svg>